<?xml version="1.0" standalone="no"?>
<!DOCTYPE svg PUBLIC "-//W3C//DTD SVG 20010904//EN"
 "http://www.w3.org/TR/2001/REC-SVG-20010904/DTD/svg10.dtd">
<svg version="1.0" xmlns="http://www.w3.org/2000/svg"
 width="180.000000pt" height="180.000000pt" viewBox="0 0 180.000000 180.000000"
 preserveAspectRatio="xMidYMid meet">
<metadata>
Created by potrace 1.11, written by Peter Selinger 2001-2013
</metadata>
<g transform="translate(0.000000,180.000000) scale(0.100000,-0.100000)"
fill="#000000" stroke="none">
<path d="M640 1790 c8 -5 21 -10 29 -10 8 0 27 -14 43 -30 27 -29 31 -30 81
-23 66 10 583 10 593 1 4 -5 0 -16 -8 -25 -9 -10 -14 -23 -11 -30 4 -10 -48
-43 -69 -43 -12 0 -71 -49 -148 -122 -57 -53 -76 -84 -46 -72 12 5 12 0 0 -35
-7 -22 -11 -47 -8 -55 3 -8 -2 -28 -10 -44 -18 -36 -19 -80 0 -187 19 -111 23
-121 49 -133 35 -16 57 -57 57 -105 0 -42 0 -42 25 28 13 39 32 85 40 103 22
44 6 63 -32 38 l-27 -18 23 31 c25 34 48 41 45 15 0 -9 7 -18 17 -20 26 -4 25
-2 36 -73 6 -36 16 -69 22 -75 8 -8 9 -5 3 14 -13 36 -9 107 7 137 17 33 59
53 106 53 l38 -1 -23 -17 c-77 -56 -92 -74 -92 -108 0 -32 2 -34 35 -34 23 0
35 5 35 14 0 7 7 19 15 26 13 10 15 9 15 -9 0 -11 9 -30 20 -41 11 -11 19 -23
18 -27 -1 -5 18 -18 41 -30 34 -17 48 -20 69 -12 l27 10 -23 -24 c-23 -25 -81
-47 -123 -47 -17 0 -20 -3 -12 -11 8 -8 25 -8 64 0 39 9 54 9 59 0 9 -13 31
17 84 114 36 66 43 71 79 68 14 -2 17 6 17 54 0 48 -2 55 -16 47 -28 -16 -64
-1 -92 39 -31 44 -79 63 -183 74 -61 7 -69 5 -107 -20 -22 -15 -43 -33 -46
-41 -3 -8 -19 -14 -41 -14 -30 0 -35 3 -35 23 0 39 61 212 96 273 10 17 38 44
62 58 51 31 53 31 139 -53 29 -28 66 -57 83 -66 16 -9 30 -21 30 -28 0 -12 73
-47 98 -47 9 0 12 60 12 260 l0 260 -587 0 c-383 0 -583 -4 -573 -10z m738
-165 c-10 -23 -52 -44 -64 -33 -3 4 65 58 73 58 1 0 -3 -11 -9 -25z m192 -695
c-8 -6 -22 -10 -30 -9 -9 0 -5 6 10 14 27 14 44 10 20 -5z"/>
<path d="M1100 941 c-5 -11 -10 -32 -10 -48 l1 -28 19 35 c11 19 19 41 20 48
0 19 -18 14 -30 -7z"/>
<path d="M1374 851 c4 -6 22 -18 39 -27 30 -14 31 -14 12 1 -30 25 -59 39 -51
26z"/>
<path d="M1142 825 c-21 -26 -30 -76 -14 -74 4 0 18 14 31 30 18 23 21 35 14
51 -9 21 -10 20 -31 -7z"/>
<path d="M1191 710 c0 -14 4 -34 9 -45 8 -18 9 -18 9 5 0 14 -4 34 -9 45 -8
18 -9 18 -9 -5z"/>
<path d="M1695 671 c-27 -4 -56 -10 -62 -14 -20 -12 -15 -55 6 -67 16 -8 18
-13 8 -35 -7 -14 -16 -25 -20 -25 -5 0 -5 -4 -2 -10 3 -5 0 -10 -8 -10 -7 0
-24 -11 -36 -24 -13 -14 -35 -26 -50 -28 -22 -2 -26 -8 -26 -33 0 -29 1 -30
65 -38 61 -7 120 -4 198 9 27 5 32 10 32 35 0 27 -3 29 -42 31 -69 3 -81 2
-110 -5 -16 -4 -28 -3 -28 2 0 21 95 37 117 20 10 -9 20 -9 38 -1 24 11 25 16
25 101 0 90 -6 104 -43 100 -7 -1 -34 -5 -62 -8z"/>
<path d="M1190 560 c-12 -8 -10 -10 8 -10 13 0 20 4 17 10 -7 12 -6 12 -25 0z"/>
<path d="M1190 520 c-7 -13 -21 -20 -41 -20 -35 0 -48 -23 -30 -52 18 -29 15
-104 -8 -186 -18 -67 -19 -78 -6 -115 19 -55 19 -58 -10 -101 -14 -20 -25 -39
-25 -41 0 -3 164 -5 365 -5 l365 0 0 80 c0 61 -4 81 -15 88 -16 8 -11 42 6 42
5 0 9 38 9 85 l0 85 -37 0 c-21 0 -54 -9 -73 -19 -110 -60 -129 -67 -165 -63
-30 4 -40 10 -48 32 -6 15 -28 38 -49 51 -21 13 -45 34 -54 47 -15 23 -48 30
-59 12 -7 -12 -55 -2 -72 15 -6 7 -15 29 -18 49 -8 40 -19 46 -35 16z m370
-304 c14 0 49 4 78 8 45 7 52 6 52 -8 0 -9 7 -19 15 -22 20 -8 19 -30 -1 -38
-10 -4 -23 3 -34 16 -15 19 -20 20 -34 9 -8 -7 -31 -14 -50 -15 -29 -1 -36 3
-41 21 -4 16 -13 23 -30 23 -13 0 -27 5 -31 11 -5 9 1 10 22 4 16 -5 40 -9 54
-9z"/>
<path d="M990 10 c-11 -7 -4 -10 25 -9 31 0 36 2 20 9 -26 11 -28 11 -45 0z"/>
</g>
</svg>
