<?xml version="1.0" standalone="no"?>
<!DOCTYPE svg PUBLIC "-//W3C//DTD SVG 1.1//EN" "http://www.w3.org/Graphics/SVG/1.1/DTD/svg11.dtd" >
<!--
2013-9-30: Created.
-->
<svg>
<metadata>
Created by iconfont
</metadata>
<defs>

<font id="iconfont-archer" horiz-adv-x="1024" >
  <font-face
    font-family="iconfont-archer"
    font-weight="500"
    font-stretch="normal"
    units-per-em="1024"
    ascent="896"
    descent="-128"
  />
    <missing-glyph />
    
    <glyph glyph-name="twitter" unicode="&#58932;" d="M672.278528 674.119424c71.1168 1.255424 108.962816-24.65792 145.115136-57.61536 30.664704 2.648064 70.530048 19.795968 94.026752 31.700992 7.61856 4.17792 15.223808 8.354816 22.841344 12.506112-13.41952-36.262912-31.620096-64.632832-59.552768-86.177792-6.21056-4.777984-12.36992-11.222016-20.164608-14.27968l0-0.437248c39.824384 0.4096 72.700928 18.376704 103.911424 28.12416l0-0.463872c-16.4096-26.049536-38.583296-52.482048-62.256128-71.431168-9.558016-7.590912-19.115008-15.182848-28.670976-22.772736 0.519168-42.160128-0.601088-82.408448-8.507392-117.851136-45.845504-206.048256-167.315456-345.936896-359.602176-405.87264-69.042176-21.516288-180.627456-30.334976-259.731456-10.703872-39.238656 9.749504-74.68032 20.72576-107.938816 35.253248-18.458624 8.082432-35.579904 16.846848-51.936256 26.81344-5.379072 3.277824-10.758144 6.5536-16.109568 9.803776 17.829888-0.520192 38.706176-5.435392 58.651648-2.21184 18.049024 2.921472 35.743744 2.128896 52.385792 5.787648 41.546752 9.120768 78.408704 21.161984 110.164992 39.757824 15.40096 8.982528 38.774784 19.577856 49.723392 32.575488-20.629504-0.355328-39.319552 4.42368-54.638592 9.831424-59.390976 20.970496-93.959168 59.52512-116.431872 117.413888 17.994752-1.939456 69.82144-6.634496 81.944576 3.575808-22.664192 1.256448-44.42624 14.363648-60.017664 24.111104-47.758336 29.9008-86.72256 80.033792-86.422528 157.145088 6.281216-2.94912 12.547072-5.924864 18.813952-8.901632 12.000256-5.07904 24.192-7.7824 38.501376-10.703872 6.06208-1.256448 18.14528-4.83328 25.094144-2.239488l-0.90112 0c-9.229312 10.730496-24.301568 17.912832-33.586176 29.435904-30.650368 38.1184-59.363328 96.744448-41.1904 166.564864 4.600832 17.693696 11.904 33.340416 19.70176 47.758336 0.28672-0.137216 0.600064-0.301056 0.886784-0.437248 3.56352-7.481344 11.523072-12.94336 16.561152-19.195904 15.673344-19.414016 34.978816-36.862976 54.638592-52.235264 67.035136-52.427776 127.408128-84.647936 224.370688-108.485632 24.576-6.061056 53.02784-10.702848 82.395136-10.730496-8.246272 24.029184-5.610496 62.912512 0.887808 86.176768 16.355328 58.487808 51.825664 100.621312 103.911424 123.230208 12.438528 5.379072 26.254336 9.33888 40.73984 12.479488C657.355776 672.317184 664.809472 673.218304 672.278528 674.119424"  horiz-adv-x="1024" />

    
    <glyph glyph-name="weibo" unicode="&#58905;" d="M730.47792 320.290115c0 0 129.105427 229.116211-244.296959 108.85829 46.810119 36.676317 39.247886 111.410416 2.514263 137.952932-136.705522 98.743932-470.802716-216.430284-470.802716-403.764903 0-113.905236 122.752742-262.011412 402.478608-262.011412 351.906815 0 461.994096 192.401008 461.994096 286.039665C882.365212 316.508999 730.47792 320.290115 730.47792 320.290115zM431.944709-49.389482c-163.92035-15.276938-305.192887 62.470797-315.500651 173.688831-10.422374 111.180172 114.058732 213.704197 278.017968 228.962715 163.92035 15.257495 305.192887-62.470797 315.53749-173.669388C720.345142 68.393062 595.902922-34.131987 431.944709-49.389482zM374.060371 273.019509c-88.763626-15.027252-150.274562-88.87926-137.377834-164.860768 12.858866-76.020394 95.212502-125.477806 183.976128-110.469997 88.724741 15.027252 150.2367 88.820931 137.377834 164.860768C545.138748 238.568882 462.823997 288.008898 374.060371 273.019509zM358.63096 56.167622c-28.67304-7.869225-57.80759 7.023974-65.080228 33.278941-7.196912 26.331715 10.191106 54.025451 38.826284 61.932538 28.67304 7.907087 57.80759-6.986111 65.041342-33.278941C404.653133 91.807331 387.302977 64.112572 358.63096 56.167622zM433.095929 140.574011c-14.739702 0-26.696012 11.918447-26.696012 26.65815 0 14.72026 11.95631 26.676569 26.696012 26.676569 14.739702 0 26.657126-11.975752 26.657126-26.676569C459.754079 152.492458 447.835631 140.574011 433.095929 140.574011zM950.689321 604.352753C891.769396 679.681392 797.343817 712.346349 684.878372 696.321374c-18.961864-2.687202-32.166607-20.24816-29.459962-39.228443 2.667759-18.922978 20.171412-32.070416 39.210024-29.421077 111.37153 15.890922 171.040515-27.13808 201.478757-66.059532 39.957037-51.14689 51.243081-124.039038 28.039613-181.327812-7.196912-17.752316 1.343601-37.981033 19.11536-45.159526 4.28049-1.727341 8.655124-2.552126 13.012362-2.552126 13.684674 0 26.657126 8.176217 32.127721 21.649066C1020.643556 433.772726 1005.500671 534.281861 950.689321 604.352753zM718.213595 570.478248c-18.885116-2.705622-32.088836-20.266579-29.383214-39.210024 2.705622-18.942421 20.171412-32.088836 39.210024-29.421077 31.858592 4.568039 56.67479-3.090385 71.567989-22.128997 13.414521-17.196661 17.388019-42.433438 9.749038-61.414745-7.196912-17.752316 1.382487-37.96159 19.11536-45.159526 4.317329-1.727341 8.655124-2.533706 13.012362-2.533706 13.684674 0 26.696012 8.176217 32.127721 21.649066 17.10047 42.145889 9.480932 93.235474-19.384489 130.161479C836.513932 545.106394 795.270599 581.495162 718.213595 570.478248z"  horiz-adv-x="1024" />

    
    <glyph glyph-name="link3" unicode="&#58954;" d="M953.395784 737.357536l-4.027998 4.041998c-94.147954 94.133954-248.193879 94.133954-342.325833 0L388.93606 523.263641c-94.133954-94.131954-94.133954-248.175879 0-342.309833l4.025998-4.025998c7.831996-7.847996 16.145992-14.923993 24.735988-21.45799l79.847961 79.849961c-9.301995 5.493997-18.125991 12.071994-26.115987 20.05999l-4.041998 4.041998c-51.113975 51.097975-51.113975 134.271934 0 185.389909L685.515915 662.923573c51.115975 51.117975 134.273934 51.117975 185.385909 0l4.041998-4.023998c51.099975-51.115975 51.099975-134.291934 0-185.389909l-98.685952-98.685952c17.131992-42.307979 25.247988-87.399957 24.537988-132.385935l152.603925 152.603925C1047.533739 489.177658 1047.533739 643.219582 953.395784 737.357536zM631.041942 423.06569c-7.831996 7.831996-16.145992 14.921993-24.735988 21.43999l-79.847961-79.831961c9.303995-5.495997 18.125991-12.073994 26.115987-20.06199l4.041998-4.039998c51.115975-51.115975 51.115975-134.271934 0-185.387909L338.486085-62.950073c-51.117975-51.101975-134.275934-51.101975-185.387909 0l-4.041998 4.041998c-51.097975 51.119975-51.097975 134.275934 0 185.387909l98.687952 98.685952c-17.133992 42.305979-25.245988 87.401957-24.537988 132.385935l-152.601925-152.597925c-94.135954-94.131954-94.135954-248.177879 0-342.323833l4.025998-4.031998c94.151954-94.127954 248.191879-94.127954 342.327833 0l218.109894 218.117893c94.133954 94.131954 94.133954 248.193879 0 342.325833L631.041942 423.06569z"  horiz-adv-x="1024" />

    
    <glyph glyph-name="date" unicode="&#58998;" d="M191.058942 596.594045c0-27.609825 22.382776-49.992601 49.992601-49.992601 27.609825 0 49.992601 22.382776 49.992601 49.992601L291.044144 695.827117c0 27.609825-22.382776 49.992601-49.992601 49.992601-27.609825 0-49.992601-22.382776-49.992601-49.992601L191.058942 596.594045zM732.890364 596.594045c0-27.609825 22.381753-49.992601 49.992601-49.992601 27.608801 0 49.992601 22.382776 49.992601 49.992601L832.875566 695.827117c0 27.609825-22.382776 49.992601-49.992601 49.992601-27.609825 0-49.992601-22.382776-49.992601-49.992601L732.890364 596.594045zM962.254216 617.203432l0-740.175793c0-16.019859-12.986779-29.007661-29.007661-29.007661L90.752422-151.980022c-16.020882 0-29.007661 12.986779-29.007661 29.007661L61.744761 617.203432c0 16.020882 12.986779 29.007661 29.007661 29.007661l79.840396 0 0-49.617048c0-38.850843 31.607882-70.458725 70.458725-70.458725 38.850843 0 70.458725 31.607882 70.458725 70.458725L311.510268 646.211093l400.914996 0 0-49.617048c0-38.850843 31.606859-70.458725 70.458725-70.458725 38.850843 0 70.458725 31.607882 70.458725 70.458725L853.342714 646.211093l79.905888 0C949.266413 646.211093 962.254216 633.224314 962.254216 617.203432zM879.199615 446.8383 144.799362 446.8383l0-518.92369 734.400253 0L879.199615 446.8383zM482.278583 50.325567l0-47.904033L241.05052 2.421534l0 34.217313c26.223245 47.904033 64.424288 90.086761 114.625644 126.60242 50.176796 35.33988 74.127278 66.724681 71.855538 94.097098 0 34.217313-20.529569 51.325969-61.590753 51.325969-31.94455-1.150196-53.036937-20.530592-63.300698-58.168818l-54.746882 23.951505c21.653159 58.168818 63.300698 87.253226 124.891452 87.253226 70.705342-3.421936 108.34459-37.077453 112.915699-100.939947 5.692652-45.630247-23.38971-88.964194-87.253226-130.023332-39.938618-29.673833-68.433602-56.459896-85.543282-80.411401C383.611399 50.325567 440.069249 50.325567 482.278583 50.325567zM526.761704 91.385728l58.168818 13.688767c4.54348-39.938618 25.662473-60.46921 63.299675-61.590753 46.753837-1.151219 69.557192 19.940145 68.434625 63.300698-3.421936 34.217313-26.250874 51.884694-68.434625 53.033867l-42.770106 0L605.46009 209.433308l29.084409 0c43.331901 0 66.135256 18.231223 68.433602 54.747905-1.149173 29.646204-18.257829 45.043892-51.324946 46.193065-33.094746-2.299369-53.035914-21.118993-59.879786-56.45785l-58.169841 13.68672c15.960507 61.590753 54.747905 92.947925 116.337635 94.097098 72.977082-1.149173 110.61633-34.217313 112.915699-99.228979 0-34.216289-18.819624-58.757219-56.45785-73.567529 45.603641-18.257829 68.995397-46.780443 70.14457-85.542258-4.571109-68.431555-46.193065-104.360859-124.891452-107.782795C580.919161-3.270095 539.299251 28.645802 526.761704 91.385728z"  horiz-adv-x="1024" />

    
    <glyph glyph-name="github" unicode="&#59039;" d="M941.714 288q0-143.433-83.712-258.011t-216.283-158.574q-15.433-2.853-22.565 3.986t-7.131 17.152v120.576q0 55.442-29.696 81.152 32.585 3.438 58.587 10.277t53.723 22.272 46.299 37.998 30.281 60.014 11.703 86.016q0 69.157-45.129 117.723 21.138 52.005-4.571 116.553-16.018 5.157-46.299-6.29t-52.553-25.161l-21.723-13.714q-53.138 14.848-109.714 14.848t-109.714-14.848q-9.143 6.29-24.283 15.433t-47.726 22.016-49.152 7.717q-25.161-64.585-3.986-116.553-45.129-48.567-45.129-117.723 0-48.567 11.703-85.723t29.989-60.014 46.007-38.29 53.723-22.272 58.587-10.277q-22.857-20.553-28.014-58.843-11.995-5.705-25.71-8.558t-32.585-2.853-37.413 12.288-31.707 35.73q-10.862 18.286-27.721 29.696t-28.27 13.714l-11.447 1.719q-11.995 0-16.567-2.56t-2.853-6.583 5.157-8.009 7.424-6.839l3.986-2.853q12.581-5.705 24.869-21.723t17.993-29.147l5.705-13.129q7.424-21.723 25.161-35.145t38.29-17.152 39.717-3.986 31.707 2.011l13.129 2.304q0-21.723 0.293-50.871t0.293-30.866q0-10.277-7.424-17.152t-22.857-3.986q-132.571 43.995-216.283 158.574t-83.712 258.011q0 119.442 58.843 220.27t159.707 159.707 220.27 58.843 220.27-58.843 159.707-159.707 58.843-220.27z"  horiz-adv-x="1024" />

    
    <glyph glyph-name="pricetag" unicode="&#59432;" d="M975.99488 896l-384 0c-26.39872 0-63.2832-15.27808-81.94048-33.93536l-476.11904-476.11904c-18.67776-18.67776-18.67776-49.21344 0-67.8912l412.11904-412.11904c18.67776-18.67776 49.21344-18.67776 67.8912 0l476.11904 476.11904c18.65728 18.65728 33.93536 55.54176 33.93536 81.94048l0 384c0 26.39872-21.6064 48.00512-48.00512 48.00512zM736.01024 512c-53.02272 0-96.01024 42.98752-96.01024 96.01024s42.98752 96.01024 96.01024 96.01024 96.01024-42.98752 96.01024-96.01024-42.98752-96.01024-96.01024-96.01024z"  horiz-adv-x="1024" />

    
    <glyph glyph-name="linkedin" unicode="&#59029;" d="M1008 708.704l0-817.392c0-23.872-8.608-44.304-25.776-61.536C965.008-187.44 944.464-196 920.688-196L103.296-196c-23.792 0-44.352 8.56-61.504 25.776C24.624-152.992 16-132.56 16-108.688L16 708.704c0 23.792 8.624 44.304 25.792 61.52C58.96 787.424 79.504 796 103.296 796l817.392 0c23.824 0 44.336-8.608 61.536-25.776C999.392 752.992 1008 732.496 1008 708.704zM345.36 533.12c0 18.512-6.112 33.872-18.384 46.128-12.224 12.24-28.256 18.352-48.096 18.352-19.824 0-36.064-6.128-48.544-18.352-12.592-12.256-18.88-27.616-18.88-46.128s6.08-33.872 18.336-46.128c12.272-12.256 27.952-18.336 47.152-18.336 21.088 0 38 6.096 50.576 18.336C340.048 499.216 346.032 514.608 345.36 533.12zM214.368 2.384l127.024 0L341.392 418.048l-127.024 0L214.368 2.384zM678.672 2.384l127.92 0L806.592 247.408c0 58.864-13.536 103.52-40.592 133.92-27.088 30.4-62.544 45.632-106.224 45.632-31.04 0-57.36-6.944-78.848-20.832s-37.568-29.44-48.08-46.64l-2.016 0-5.92 58.544-110.112 0c1.936-75.424 2.96-119.712 2.96-132.944l0-282.704 126.96 0L544.72 241.472c0 13.84 1.344 24.816 3.968 32.752 13.248 32.384 35.04 48.592 65.456 48.592 43.008 0 64.528-30.112 64.528-90.272L678.672 2.384z"  horiz-adv-x="1024" />

    
    <glyph glyph-name="box-empty" unicode="&#59000;" d="M490.644 238.488c-2.941 1.001-6.183 0.007-8.073-2.463l-52.762-68.924c-3.083-4.02-7.961-6.419-13.047-6.419-2.86 0-5.672 0.74-8.144 2.162l-241.738 137.956c-2.24 1.279-5.006 1.27-7.231-0.032-2.24-1.287-3.607-3.679-3.607-6.262l0-107.603c0-2.59 1.374-4.981 3.615-6.278l325.035-188.048c1.121-0.651 2.376-0.975 3.632-0.975 1.246 0 2.495 0.324 3.624 0.967 2.241 1.297 3.624 3.696 3.624 6.278l0 232.776c-0.001 3.105-1.987 5.865-4.927 6.864zM864.338 300.769c-2.224 1.302-4.981 1.311-7.231 0.032l-241.753-137.973c-2.454-1.405-5.261-2.145-8.121-2.145-5.094 0-9.972 2.391-13.047 6.412l-52.762 68.931c-1.891 2.47-5.141 3.464-8.08 2.463-2.94-1.001-4.919-3.76-4.919-6.864l0-232.777c0-2.581 1.375-4.981 3.624-6.278 1.121-0.643 2.367-0.967 3.623-0.967 1.248 0 2.503 0.324 3.624 0.975l325.035 188.048c2.241 1.297 3.615 3.688 3.615 6.278l0 107.603c0.001 2.584-1.373 4.975-3.607 6.263zM960.237 595.007c-0.39 2.347-1.907 4.358-4.06 5.374l-327.196 154.338c-2.623 1.232-5.728 0.791-7.898-1.129l-93.517-82.756-12.179 6.46c-2.122 1.132-4.671 1.132-6.794 0l-12.181-6.464-93.499 82.761c-2.169 1.919-5.268 2.36-7.89 1.129l-327.203-154.338c-2.154-1.016-3.672-3.027-4.062-5.374-0.382-2.344 0.405-4.736 2.113-6.389l97.64-94.385-15.382-8.169c-1.217-0.643-2.226-1.628-2.909-2.828l-53.03-93.65c-1.963-3.476-0.748-7.887 2.717-9.865l312.043-178.11c3.147-1.804 7.143-0.995 9.345 1.882l65.935 86.118c1.28 1.683 1.772 3.83 1.344 5.895-0.437 2.066-1.748 3.846-3.6 4.863l-309.763 170.672 329.985 175.099 0.009-215.297-81.009-46.944c-2.257-1.308-3.639-3.734-3.616-6.346 0.033-2.614 1.462-5.005 3.751-6.269l89.162-49.141c2.177-1.209 4.815-1.209 7 0l89.169 49.141c2.288 1.264 3.719 3.655 3.75 6.273 0.024 2.61-1.351 5.033-3.615 6.34l-81.009 46.944 0.008 215.302 329.985-175.103-309.762-170.672c-1.853-1.017-3.163-2.797-3.6-4.863-0.43-2.065 0.056-4.212 1.343-5.895l65.937-86.118c1.413-1.844 3.567-2.836 5.76-2.836 1.223 0 2.463 0.31 3.584 0.955l312.041 178.108c3.474 1.978 4.69 6.389 2.718 9.865l-53.039 93.654c-0.683 1.199-1.692 2.181-2.907 2.824l-15.36 8.169 97.631 94.385c1.71 1.653 2.503 4.045 2.114 6.389z"  horiz-adv-x="1024" />

    
    <glyph glyph-name="share1" unicode="&#58887;" d="M810.667 32.037c0-23.585-19.695-42.704-42.704-42.704h-511.926c-23.585 0-42.704 19.695-42.704 42.704v511.926c0 23.585 19.695 42.704 42.704 42.704h213.296c23.564 0 42.667 19.103 42.667 42.667 0 23.564-19.103 42.667-42.667 42.667h-256.393c-46.057 0-84.941-38.029-84.941-84.941v-598.119c0-46.057 38.029-84.941 84.941-84.941h598.119c46.057 0 84.941 38.029 84.941 84.941v256.393c0 23.564-19.103 42.667-42.667 42.667-23.564 0-42.667-19.103-42.667-42.667v-213.296zM678.14 585.749c-23.347 0-42.273 19.792-42.273 42.667 0 23.564 18.411 42.667 42.273 42.667h171.454c11.606 0 22.12-4.891 29.76-12.621 7.791-7.27 12.513-17.787 12.513-29.652v-171.454c0-23.347-19.792-42.273-42.667-42.273-23.564 0-42.667 18.411-42.667 42.273v68.054l-374.509-374.509c-16.677-16.677-44.191-16.201-60.366-0.026-16.662 16.662-16.244 44.096 0.026 60.366l374.509 374.509h-68.054z"  horiz-adv-x="1024" />

    
    <glyph glyph-name="search" unicode="&#58919;" d="M556.630988 652.11748c-123.294071 0-223.290529-100.038414-223.290529-223.418442 0-47.120181 14.745842-90.660836 39.527249-126.696564l-128.96421-96.680946 89.436962-89.307002 96.680946 128.876206c36.037774-24.867364 79.57843-39.569204 126.610606-39.569204 123.380028 0 223.376487 99.996458 223.376487 223.37751C780.007475 552.079066 680.011017 652.11748 556.630988 652.11748zM556.630988 294.627507c-73.994248 0-134.027529 60.077284-134.027529 134.071532 0 74.036203 60.033281 133.981481 134.027529 133.981481 74.080206 0 134.025483-59.945277 134.025483-133.981481C690.656471 354.70479 630.711194 294.627507 556.630988 294.627507zM780.007475 830.732507 243.903497 830.732507c-98.599645 0-178.61298-79.969333-178.61298-178.615027l0-536.102954c0-98.730629 80.013335-178.744987 178.61298-178.744987l536.105001 0c98.772584 0 178.700985 80.013335 178.700985 178.744987L958.709483 652.11748C958.70846 750.763175 878.781082 830.732507 780.007475 830.732507zM869.44546 160.646026c0-73.994248-60.119239-134.069485-134.113487-134.069485L288.578999 26.576541c-73.994248 0-134.027529 60.075237-134.027529 134.069485L154.55147 607.356021c0 74.080206 60.033281 134.069485 134.027529 134.069485l446.752973 0c73.994248 0 134.113487-59.989279 134.113487-134.069485L869.44546 160.646026z"  horiz-adv-x="1024" />

    
    <glyph glyph-name="qqkongjian" unicode="&#58926;" d="M957.434443 483.741655c-8.280594 23.668049-309.126476 44.821835-309.126476 44.821835S537.022395 807.983387 510.108418 807.983387c-26.909883 0-138.253784-279.419897-138.253784-279.419897S72.293001 507.521245 62.727135 483.741655c-9.56689-23.77345 223.692688-217.514989 223.692688-217.514989s-68.87567-294.214858-52.816926-307.104423c16.109909-12.894681 276.450263 145.008628 276.450263 145.008628s258.379699-163.376974 276.508591-145.008628c13.31526 13.505595-22.435988 178.836061-41.794895 262.452457-0.615007 2.676969-101.048417-11.166317-212.389248-11.890818-98.863658-0.669242-209.145367 6.031367-209.145367 6.031367l257.429047 191.169971c0 0-80.009242 14.56881-140.769071 20.036335-86.837764 7.814989-162.92672 7.648191-153.472394 10.045797 15.050788 3.797489 120.573099 13.677511 223.688595 10.04989 94.112448-3.351328 187.211822-20.040429 187.211822-20.040429L439.892217 243.84389c0 0 56.226582-8.653077 102.893438-10.440793 88.903819-3.403516 197.392696-0.947582 197.171662 0-3.304256 14.009062-6.210445 32.82357-6.210445 32.82357S965.716061 460.076676 957.434443 483.741655L957.434443 483.741655zM957.434443 483.741655"  horiz-adv-x="1024" />

    
    <glyph glyph-name="wechat" unicode="&#60541;" d="M331.556571 632.539429q0 23.405714-14.262857 37.741714t-37.741714 14.262857q-24.576 0-43.446857-14.555429t-18.870857-37.449143q0-22.308571 18.870857-36.864t43.446857-14.555429q23.405714 0 37.741714 13.970286t14.262857 37.449143zM756.150857 342.820571q0 16.018286-14.555429 28.598857t-37.449143 12.580571q-15.433143 0-28.306286-12.873143t-12.873143-28.306286q0-16.018286 12.873143-28.891429t28.306286-12.873143q22.820571 0 37.449143 12.580571t14.555429 29.110857zM621.275429 632.539429q0 23.405714-13.970286 37.741714t-37.449143 14.262857q-24.576 0-43.446857-14.555429t-18.870857-37.449143q0-22.308571 18.870857-36.864t43.446857-14.555429q23.405714 0 37.449143 13.970286t13.970286 37.449143zM984.137143 342.820571q0 16.018286-14.848 28.598857t-37.156571 12.580571q-15.433143 0-28.306286-12.873143t-12.873143-28.306286q0-16.018286 12.873143-28.891429t28.306286-12.873143q22.308571 0 37.156571 12.580571t14.848 29.110857zM832.146286 569.709714q-17.700571 2.267429-40.009143 2.267429-96.548571 0-177.737143-44.032t-127.707429-119.149714-46.592-164.278857q0-44.544 13.165714-86.820571-19.968-1.682286-38.838857-1.682286-14.848 0-28.598857 0.877714t-31.451429 3.730286-25.453714 4.022857-31.158857 5.997714-28.598857 5.997714l-144.603429-72.557714 41.179429 124.562286q-165.741714 116.004571-165.741714 279.990857 0 96.548571 55.734857 177.737143t150.820571 127.707429 207.725714 46.592q100.571429 0 190.025143-37.741714t149.723429-104.301714 77.970286-148.845714zM1170.432 249.124571q0-66.852571-39.131429-127.707429t-105.984-110.592l31.451429-103.424-113.737143 62.317714q-85.723429-21.138286-124.562286-21.138286-96.548571 0-177.737143 40.301714t-127.707429 109.421714-46.592 150.820571 46.592 150.820571 127.707429 109.421714 177.737143 40.301714q92.013714 0 173.129143-40.301714t129.974857-109.714286 48.859429-150.601143z"  horiz-adv-x="1171" />

    
    <glyph glyph-name="06tags" unicode="&#58907;" d="M1002.581333 363.029333l0-0.448c0-6.826667-3.413333-12.650667-8.426667-16.554667L590.122667-58.005333c-8.128-8.128-21.290667-8.128-29.461333 0-8.128 8.149333-8.128 21.333333 0 29.461333l399.253333 399.253333 0 141.205333c0 11.776 9.578667 21.333333 21.333333 21.333333 11.797333 0 21.333333-9.557333 21.333333-21.333333l0-148.757333C1002.581333 363.114667 1002.581333 363.093333 1002.581333 363.029333zM422.528-97.6c-0.682667-1.024-1.130667-2.176-2.026667-3.072-4.202667-4.181333-9.749333-6.122667-15.253333-5.994667-5.504-0.128-11.050667 1.813333-15.253333 5.994667-0.896 0.896-1.322667 2.048-2.026667 3.072L30.4 259.989333c-1.024 0.682667-2.154667 1.130667-3.072 2.026667C23.125333 266.218667 21.226667 271.744 21.333333 277.248c-0.128 5.504 1.792 11.050667 5.994667 15.253333 0.917333 0.896 2.048 1.322667 3.072 2.026667L516.714667 780.842667c3.904 4.992 9.706667 8.426667 16.533333 8.426667l0.448 0c0.042667 0 0.085333 0 0.128 0l85.952 0c2.837333 32.042667 15.914667 60.16 35.626667 78.570667l0.341333-0.384c4.16 4.416 9.877333 7.146667 16.170667 7.146667 12.629333 0 22.869333-10.922667 22.869333-24.384 0-8-3.84-14.741333-9.408-19.178667-10.218667-9.429333-17.493333-24.298667-19.925333-41.770667l101.866667 0c0.042667 0 0.085333 0 0.170667 0l0.426667 0c6.826667 0 12.672-3.413333 16.533333-8.426667l124.373333-124.373333c4.992-3.904 8.426667-9.728 8.426667-16.554667l0-0.448c0-0.042667 0-0.085333 0-0.128l0-233.493333c0-0.042667 0-0.085333 0-0.149333l0-0.448c0-6.826667-3.413333-12.650667-8.426667-16.533333L422.528-97.6zM874.581333 631.786667l-114.794667 114.794667-89.877333 0c3.754667-9.472 9.045333-17.536 15.466667-23.466667l0 0c0.874667-0.704 1.962667-1.130667 2.709333-1.962667l0.384 0.384c22.208-20.757333 36.8-53.504 36.8-90.752 0-0.896-0.213333-1.685333-0.256-2.56 25.536-14.741333 42.922667-42.026667 42.922667-73.642667 0-47.125333-38.208-85.333333-85.333333-85.333333s-85.333333 38.208-85.333333 85.333333c0 45.802667 36.16 82.88 81.493333 84.949333-1.92 18.944-9.408 35.157333-20.245333 45.184-0.874667 0.704-1.962667 1.130667-2.752 1.962667L655.424 686.293333c-15.872 14.826667-27.584 35.946667-33.130667 60.288l-80.917333 0-469.333333-469.333333 333.205333-333.205333 469.333333 469.333333L874.581333 631.786667zM658.496 576.832c5.290667 4.885333 9.621333 11.456 13.162667 18.837333-18.24-4.864-31.744-21.333333-31.744-41.066667 0-23.552 19.114667-42.666667 42.666667-42.666667 23.573333 0 42.666667 19.114667 42.666667 42.666667 0 10.090667-3.626667 19.221333-9.493333 26.538667-13.12-32.96-27.669333-40.725333-27.669333-40.725333-4.117333-4.416-9.834667-7.125333-16.170667-7.125333-12.629333 0-22.826667 10.922667-22.826667 24.384C649.088 565.632 652.906667 572.373333 658.496 576.832zM262.016 313.834667c8.149333 8.128 21.333333 8.128 29.461333 0l150.378667-150.378667c8.128-8.128 8.128-21.312 0-29.461333-8.128-8.128-21.333333-8.128-29.461333 0l-150.378667 150.378667C253.888 292.501333 253.888 305.685333 262.016 313.834667zM347.349333 399.168c8.149333 8.128 21.333333 8.128 29.461333 0l150.378667-150.378667c8.106667-8.128 8.106667-21.312 0-29.461333-8.128-8.128-21.333333-8.128-29.461333 0l-150.378667 150.378667C339.221333 377.834667 339.221333 391.018667 347.349333 399.168z"  horiz-adv-x="1024" />

    
    <glyph glyph-name="qrcode" unicode="&#59227;" d="M329.12896 237.69088l0-73.138176-73.138176 0 0 73.138176 73.138176 0zm0 438.829056l0-73.138176-73.138176 0 0 73.138176 73.138176 0zm438.829056 0l0-73.138176-73.138176 0 0 73.138176 73.138176 0zm-585.105408-584.534016l219.414528 0 0 218.843136-219.414528 0 0-218.843136zm0 438.257664l219.414528 0 0 219.414528-219.414528 0 0-219.414528zm438.829056 0l219.414528 0 0 219.414528-219.414528 0 0-219.414528zm-146.276352-146.276352l0-365.69088-365.69088 0 0 365.69088 365.69088 0zm292.552704-292.552704l0-73.138176-73.138176 0 0 73.138176 73.138176 0zm146.276352 0l0-73.138176-73.138176 0 0 73.138176 73.138176 0zm0 292.552704l0-219.414528-219.414528 0 0 73.138176-73.138176 0 0-219.414528-73.138176 0 0 365.69088 219.414528 0 0-73.138176 73.138176 0 0 73.138176 73.138176 0zm-438.829056 438.829056l0-365.69088-365.69088 0 0 365.69088 365.69088 0zm438.829056 0l0-365.69088-365.69088 0 0 365.69088 365.69088 0z"  horiz-adv-x="1024" />

    
    <glyph glyph-name="tag1" unicode="&#59520;" d="M919.411145 896 633.478528 896c-52.41728 0-125.636578-30.315136-162.706028-67.384586L27.810015 385.652929c-37.06945-37.06945-37.06945-97.731432 0-134.800882l341.77462-341.77462c37.06945-37.06945 97.731432-37.06945 134.800882 0l442.930774 442.930774C984.417451 389.077652 1014.732587 462.29695 1014.732587 514.745941L1014.732587 800.678558C1014.732587 853.095838 971.828425 896 919.411145 896zM792.759834 578.896066c-52.544122 0-95.13118 42.587058-95.13118 95.13118s42.587058 95.13118 95.13118 95.13118 95.13118-42.587058 95.13118-95.13118S845.303956 578.896066 792.759834 578.896066z"  horiz-adv-x="1024" />

    
    <glyph glyph-name="snssharedoubanon" unicode="&#58885;" d="M354.488287 475.886945l315.023421 0 0-105.01599-315.023421 0 0 105.01599ZM380.738193 292.113055 459.496094 160.847159 564.495719 160.847159 643.261802 292.113055ZM967.662528 839.670713C930.12058 877.220843 884.895134 896 832.010737 896L192.005623 896c-52.884396 0-98.109842-18.779157-135.668156-56.329287C18.787337 802.112399 0.00818 756.886953 0.00818 704.002557l0-639.996932c0-52.884396 18.779157-98.109842 56.329287-135.668156 37.558313-37.558313 82.783759-56.33747 135.668156-56.33747l639.996932 0c52.884396 0 98.109842 18.779157 135.65179 56.33747 37.558313 37.558313 56.33747 82.783759 56.33747 135.668156L1023.991815 704.002557C1023.991815 756.886953 1005.212658 802.120582 967.662528 839.670713zM827.035693 82.089258l-630.063208 0 0 78.757901 183.765708 0-65.690226 109.483711 16.414374 21.782185-55.740137 0L275.722204 554.644846l472.539223 0 0-262.531792-62.286249 0 22.919572-22.674093-65.632948-108.591803 183.773891 0L827.035693 82.089258zM827.035693 607.144659l-630.063208 0 0 78.757901 630.063208 0L827.035693 607.144659z"  horiz-adv-x="1024" />

    
    <glyph glyph-name="closebg" unicode="&#58889;" d="M512 810.666667C276.352 810.666667 85.333333 619.648 85.333333 384 85.333333 148.352 276.352-42.666667 512-42.666667 747.648-42.666667 938.666667 148.352 938.666667 384 938.666667 619.648 747.648 810.666667 512 810.666667ZM723.221333 233.152 662.869333 172.821333 512.021333 323.669333 361.173333 172.821333 300.842667 233.152 451.690667 384 300.842667 534.848 361.173333 595.2 512.021333 444.352 662.869333 595.2 723.221333 534.848 572.373333 384 723.221333 233.152Z"  horiz-adv-x="1024" />

    
    <glyph glyph-name="iconfontzuo" unicode="&#58904;" d="M480 832C214.912 832 0 617.088 0 352 0 86.912 214.912-128 480-128c265.088 0 480 214.912 480 480C960 617.088 745.088 832 480 832zM480-64C250.624-64 64 122.624 64 352S250.624 768 480 768 896 581.376 896 352 709.376-64 480-64zM542.528 128.384c-8.192 0-16.384 3.136-22.656 9.344L328.32 329.344c-0.064 0-0.064 0.064-0.064 0.064 0 0 0 0-0.064 0.064 0 0 0 0 0 0 0 0 0 0-0.064 0.064l0 0c0 0 0 0-0.064 0.064l0 0c0 0-0.064 0.064-0.064 0.064s0 0 0 0c0 0 0.448 0 0.448 0.064l0 0C322.624 335.744 320 343.488 320 351.232l0 0c0 0 0 0.064 0 0.064 0 0-0.512 0-0.512 0 0 0-0.256 0-0.256 0.064 0 0 0.384 0 0.384 0 0 0 0.384 0 0.384 0.064 0 0 0 0 0 0.064l-0.512 0c0 0-0.256 0-0.256 0.064 0 0-0.128 0-0.128 0 0 0-0.064 0-0.064 0.064 0 0 0 0 0 0 0 0 0 0 0 0.064l0 0 0 0c0 0 0 0.064 0 0.064 0 0 0 0 0 0 0 0 0 0.064 0 0.064 0 0 0 0 0 0 0 0 0.512 0.064 0.512 0.064l0.512 0c0 0.064 0 0.064 0 0.064 0 0-0.512 0.064-0.512 0.064 0 0-0.256 0-0.256 0 0 0 0.384 0.064 0.384 0.064 0 0 0.384 0 0.384 0 0 0 0 0.064 0 0.064l0 0c0 7.808 2.624 15.488 8.448 21.504l0 0c0 0-0.192 0.064-0.192 0.064 0 0-0.064 0-0.064 0s0 0 0 0.064l0 0c0 0 0 0 0 0.064l0 0c0 0 0.064 0.064 0.064 0.064 0 0 0 0 0 0 0 0 0 0 0.064 0.064 0 0 0 0 0.064 0.064l192.768 192.832c12.48 12.48 32.768 12.48 45.248 0s12.48-32.768 0-45.248L396.224 351.936l168.896-168.96c12.48-12.48 12.48-32.768 0-45.248C558.848 131.52 550.656 128.384 542.528 128.384z"  horiz-adv-x="1024" />

    
    <glyph glyph-name="tag2" unicode="&#58886;" d="M985.6 422.4 985.6 422.4l-256-256-256-256 0 0C454.4-115.2 422.4-128 384-128c-38.4 0-70.4 12.8-89.6 38.4l0 0-256 256 0 0C12.8 185.6 0 217.6 0 256c0 38.4 12.8 70.4 38.4 89.6l0 0 256 256 256 256 0 0C569.6 883.2 601.6 896 640 896l256 0c70.4 0 128-57.6 128-128l0-256C1024 473.6 1011.2 441.6 985.6 422.4zM768 768c-70.4 0-128-57.6-128-128 0-70.4 57.6-128 128-128 70.4 0 128 57.6 128 128C896 710.4 838.4 768 768 768z"  horiz-adv-x="1024" />

    
    <glyph glyph-name="xiangyou1" unicode="&#59253;" d="M761.055557 363.871953c0.512619 0.992555 1.343475 1.823411 1.792447 2.848649 8.800538 18.304636 5.919204 40.703346-9.664077 55.424808L399.935923 756.256202c-19.264507 18.208305-49.631179 17.344765-67.872168-1.888778-18.208305-19.264507-17.375729-49.631179 1.888778-67.872168l316.960409-299.839269L335.199677 82.368284c-19.071845-18.399247-19.648112-48.767639-1.247144-67.872168 9.407768-9.791372 21.984142-14.688778 34.560516-14.688778 12.000108 0 24.000215 4.479398 33.311652 13.439914l350.048434 337.375729c0.672598 0.672598 0.927187 1.599785 1.599785 2.303346 0.512619 0.479935 1.056202 0.832576 1.567101 1.343475C757.759656 357.120172 759.199462 360.608735 761.055557 363.871953z"  horiz-adv-x="1024" />

    
    <glyph glyph-name="xiangzuo1" unicode="&#59257;" d="M671.968176-15.99957c-12.287381 0-24.576482 4.67206-33.951566 14.047144L286.048434 350.015751c-18.751888 18.719204-18.751888 49.12028 0 67.872168L638.016611 769.888778c18.751888 18.751888 49.12028 18.751888 67.872168 0 18.751888-18.719204 18.751888-49.12028 0-67.872168l-318.016611-318.047574L705.888778 65.952426c18.751888-18.751888 18.751888-49.12028 0-67.872168C696.544658-11.32751 684.255557-15.99957 671.968176-15.99957z"  horiz-adv-x="1024" />

    
    <glyph glyph-name="emptybox" unicode="&#59158;" d="M957.12 598.976c0 0.128 0 0.192 0.064 0.256 0.512 0.896 0.896 1.792 1.216 2.752 0.256 0.512 0.448 0.96 0.64 1.344 0.256 0.768 0.256 1.408 0.448 2.112 0.192 0.832 0.384 1.536 0.448 2.24 0.064 0.448 0 0.832 0 1.216C960 610.048 960.064 611.072 959.936 612.16c-0.064 0.512-0.192 1.024-0.32 1.536-0.128 0.896-0.256 1.856-0.512 2.816-0.128 0.448-0.384 0.832-0.512 1.28-0.32 1.024-0.704 1.984-1.152 2.944C957.44 620.8 957.376 620.864 957.376 620.928c-0.256 0.448-0.512 0.832-0.832 1.28-0.512 0.768-0.96 1.6-1.536 2.304-0.512 0.64-1.088 1.216-1.6 1.728-0.512 0.512-0.96 1.024-1.472 1.472-0.768 0.64-1.6 1.216-2.496 1.728-0.384 0.192-0.64 0.512-1.024 0.704l-0.384 0.192c0 0-0.064 0-0.128 0.064l-271.744 152.704c-0.128 0.064-0.256 0.128-0.448 0.256-0.704 0.32-1.344 0.576-2.048 0.896s-1.472 0.64-2.24 0.896c-0.448 0.128-0.896 0.192-1.344 0.256-1.024 0.32-1.984 0.512-3.008 0.64-0.384 0-0.704 0-1.024 0-1.152 0.064-2.24 0.064-3.392-0.064-0.448-0.064-0.896-0.192-1.28-0.256-1.024-0.128-1.984-0.32-3.072-0.64-0.512-0.192-0.96-0.384-1.408-0.576-0.96-0.384-1.792-0.704-2.752-1.216-0.128-0.064-0.256-0.128-0.384-0.192L512 703.808 370.24 783.104C370.112 783.168 369.984 783.232 369.856 783.296 368.96 783.808 368 784.064 367.104 784.448 366.656 784.64 366.208 784.832 365.696 785.024c-1.088 0.32-2.112 0.512-3.2 0.64C362.176 785.728 361.792 785.856 361.408 785.92 360.192 786.048 358.976 786.048 357.824 785.984c-0.256 0-0.512 0-0.768 0-1.152-0.128-2.24-0.32-3.328-0.64C353.344 785.216 353.024 785.216 352.704 785.152c-0.896-0.32-1.664-0.704-2.56-1.088C349.568 783.936 348.928 783.68 348.352 783.36 348.224 783.296 348.032 783.232 347.84 783.104L76.032 630.4c0 0 0 0 0 0L75.648 630.208C75.2 629.952 74.88 629.632 74.56 629.376 73.728 628.928 72.832 628.352 72.064 627.712 71.552 627.2 71.04 626.688 70.528 626.176 70.016 625.6 69.44 625.088 68.992 624.512 68.352 623.808 67.904 622.912 67.392 622.144 67.136 621.696 66.816 621.376 66.624 620.992 66.56 620.928 66.56 620.8 66.56 620.736 66.048 619.84 65.728 618.88 65.408 617.984 65.216 617.472 64.96 617.024 64.832 616.512 64.576 615.808 64.512 615.04 64.384 614.208 64.256 613.504 64.064 612.864 64 612.16 64 611.52 64 610.88 64 610.368c0-0.896-0.064-1.728 0-2.624 0.064-0.576 0.256-1.216 0.384-1.792 0.128-0.896 0.256-1.728 0.512-2.56C65.152 602.88 65.344 602.496 65.536 601.984 65.92 601.024 66.304 600.064 66.752 599.232c0-0.064 0.064-0.128 0.064-0.256C66.944 598.848 67.136 598.72 67.2 598.464 68.032 597.12 68.992 595.84 70.08 594.688 70.464 594.304 70.848 593.92 71.296 593.536c0.96-0.896 2.048-1.664 3.2-2.496 0.384-0.256 0.768-0.576 1.216-0.832C75.904 590.08 76.032 590.08 76.096 590.016L198.144 525.44l-106.048-51.2C91.712 474.112 91.328 473.792 90.944 473.6 90.176 473.152 89.472 472.768 88.832 472.256 88.192 471.872 87.68 471.36 87.104 470.848S85.952 469.888 85.504 469.312c-0.576-0.64-1.088-1.344-1.6-1.92-0.32-0.384-0.64-0.704-0.896-1.088C82.88 466.24 82.816 465.984 82.688 465.792 82.304 465.088 81.92 464.32 81.536 463.68c-0.32-0.704-0.64-1.344-0.896-1.92-0.256-0.704-0.384-1.344-0.64-2.048C79.872 458.816 79.68 458.176 79.552 457.408S79.424 456 79.36 455.36C79.296 454.528 79.232 453.76 79.232 453.12c0-0.832 0.128-1.472 0.256-2.176C79.552 450.176 79.68 449.344 79.808 448.64 79.936 448 80.128 447.424 80.384 446.72 80.64 445.888 80.896 445.12 81.28 444.352c0.064-0.256 0.128-0.384 0.192-0.64C81.6 443.52 81.792 443.328 81.92 443.072c0.832-1.408 1.664-2.88 2.816-4.16 0.256-0.256 0.448-0.64 0.768-0.896 1.216-1.28 2.496-2.368 3.968-3.456l137.216-91.136c-0.384-1.6-0.64-3.328-0.64-5.056l0-135.424 0 0 0-0.128c0-0.384 0.128-0.768 0.128-1.152 0.064-1.152 0.128-2.24 0.32-3.264 0.128-0.768 0.384-1.344 0.64-2.112 0.192-0.768 0.384-1.344 0.64-2.112 0.256-0.768 0.64-1.344 0.96-1.984 0.32-0.64 0.64-1.344 1.088-1.984 0.384-0.64 0.896-1.152 1.344-1.728 0.512-0.512 0.896-1.152 1.408-1.728 0.768-0.64 1.6-1.344 2.432-1.984 0.384-0.256 0.64-0.64 1.024-0.768l0.064-0.128 0 0 262.976-179.776c0-0.128 0-0.128 0-0.128 0.448-0.256 1.024-0.512 1.536-0.768 0.512-0.384 1.024-0.64 1.472-0.896 0.832-0.384 1.664-0.768 2.56-1.024 0.384-0.128 0.832-0.256 1.28-0.384 0.32-0.128 0.64-0.256 0.96-0.256 1.664-0.384 3.328-0.64 5.056-0.64 0 0 0-0.128 0-0.128l0 0 0 0 0 0 0 0C512 0 512 0.128 512 0.128c1.728 0 3.392 0.256 4.992 0.64 0.384 0 0.64 0.128 1.024 0.256 0.448 0.128 0.896 0.256 1.28 0.384 0.896 0.256 1.728 0.64 2.496 1.024 0.512 0.256 1.024 0.512 1.472 0.768 0.512 0.384 1.088 0.64 1.472 0.896 0.064 0 0.128 0 0.128 0.128l262.976 179.904c0.448 0.256 0.768 0.64 1.152 0.896 0.768 0.64 1.6 1.28 2.24 1.856 0.576 0.64 1.024 1.28 1.472 1.728 0.384 0.64 0.896 1.152 1.344 1.728 0.384 0.64 0.704 1.344 1.024 1.984 0.384 0.64 0.768 1.28 1.024 1.984 0.32 0.768 0.512 1.344 0.704 2.112s0.448 1.344 0.576 2.112c0.256 1.152 0.32 2.24 0.384 3.392 0 0.256 0.128 0.64 0.128 1.024l0 0.128 0 0L797.888 338.432c0 1.728-0.256 3.456-0.64 4.992l137.28 91.2c1.408 1.024 2.752 2.176 3.968 3.392 0.256 0.32 0.448 0.704 0.704 0.96 1.152 1.28 2.048 2.688 2.88 4.16 0.128 0.192 0.256 0.384 0.384 0.64 0.128 0.192 0.128 0.384 0.256 0.576 0.384 0.832 0.64 1.6 0.896 2.432 0.256 0.704 0.384 1.28 0.64 1.856 0.128 0.768 0.256 1.472 0.256 2.304 0.128 0.704 0.256 1.344 0.256 2.112s0 1.472-0.064 2.24-0.064 1.344-0.192 2.112c-0.128 0.704-0.384 1.408-0.512 2.112-0.256 0.768-0.384 1.472-0.704 2.176-0.256 0.64-0.576 1.216-0.832 1.792-0.384 0.832-0.768 1.536-1.28 2.304-0.128 0.128-0.128 0.384-0.256 0.512-0.256 0.384-0.64 0.704-0.896 1.024-0.512 0.704-1.024 1.344-1.6 1.984-0.512 0.576-1.024 1.024-1.6 1.472-0.512 0.512-1.152 1.024-1.728 1.408C934.4 472.768 933.632 473.216 932.864 473.6c-0.384 0.192-0.768 0.576-1.152 0.704l-105.984 51.2 121.984 64.512c0.128 0.128 0.256 0.128 0.384 0.256 0.384 0.256 0.768 0.512 1.152 0.768 1.28 0.832 2.368 1.6 3.392 2.624 0.384 0.32 0.768 0.704 1.152 1.088 1.152 1.216 2.112 2.496 2.88 3.904C956.864 598.72 956.992 598.848 957.12 598.976zM664.832 310.4 556.736 380.928l218.88 117.952 100.096-48.32L664.832 310.4zM359.168 310.4 148.224 450.56l100.096 48.32 218.88-117.952L359.168 310.4zM359.04 736.896l106.688-59.776L248.384 550.72 134.656 610.816 359.04 736.896zM512 408.768 295.808 525.312 512 650.944l216.256-125.632L512 408.768zM558.208 677.184l106.688 59.776 224.448-126.08-113.664-60.096L558.208 677.184zM346.368 263.872c0.256-0.128 0.576-0.256 0.896-0.384 1.28-0.768 2.56-1.344 3.968-1.856C351.808 261.376 352.384 261.12 353.088 260.864c1.856-0.512 3.776-0.768 5.696-0.768 0.064 0 0.128-0.128 0.256-0.128l0 0 0 0c0.064 0 0.128 0.128 0.256 0.128 1.92 0 3.84 0.256 5.696 0.768 0.64 0.256 1.216 0.512 1.792 0.768 1.344 0.384 2.688 1.024 3.968 1.728 0.256 0.128 0.576 0.256 0.832 0.384L489.152 340.48l0-274.112-217.28 148.48L271.872 313.344 346.368 263.872zM752.128 214.848l-217.28-148.48L534.848 340.48l117.568-76.736c0.32-0.128 0.576-0.256 0.832-0.384 1.28-0.768 2.624-1.344 3.968-1.856 0.64-0.128 1.152-0.384 1.728-0.64 1.856-0.512 3.84-0.768 5.76-0.768 0.064 0 0.128-0.128 0.256-0.128l0 0 0 0c0 0 0.064 0.128 0.128 0.128 1.984 0 3.968 0.256 5.888 0.896 0.64 0.128 1.216 0.384 1.728 0.64 1.408 0.512 2.752 1.152 3.968 1.856 0.32 0.256 0.64 0.256 0.896 0.384l74.56 49.472L752.128 214.848 752.128 214.848z"  horiz-adv-x="1024" />

    
    <glyph glyph-name="link" unicode="&#59101;" d="M307.84-39.744l-217.92 221.248 241.728 241.664c-16.448 16.448-38.464 25.6-62.016 25.6-26.496 0.384-47.616-9.6-65.152-27.2l-177.216-177.344C9.664 226.752 0 203.712 0 179.264c0-23.552 9.024-45.696 25.536-62.144l219.584-219.648C261.568-118.912 283.584-128 307.136-128l0 0c24.448 0 47.616 9.6 65.024 27.136l177.344 177.344c35.52 35.456 36.224 92.48 1.6 127.04L307.84-39.744zM998.464 650.88 778.88 870.528C762.368 886.912 740.352 896 716.8 896l-0.064 0c-24.448 0-47.552-9.664-65.024-27.136L474.432 691.52C438.912 656.064 438.144 598.976 472.768 564.416l243.328 243.328 217.92-221.248-241.664-241.728c16.384-16.448 38.464-25.536 62.016-25.536l0.064 0c24.448 0 47.552 9.6 65.088 27.2l177.28 177.28C1014.336 541.248 1024 564.288 1024 588.8 1024 612.288 1014.912 634.432 998.464 650.88zM328.896 263.68l62.72-62.784 287.744 287.744-62.72 62.784L328.896 263.68z"  horiz-adv-x="1024" />

    
    <glyph glyph-name="sina" unicode="&#58946;" d="M960.992 155.232c0-19.712-5.536-37.952-14.432-54.048l-283.84 317.568 280.768 245.632c10.912-17.344 17.504-37.696 17.504-59.68l-0-449.472zM511.488 361.12l390.688 341.824c-16.032 8.768-34.080 14.144-53.568 14.144h-674.24c-19.52 0-37.568-5.376-53.536-14.144l390.656-341.824zM620.416 381.792l-90.432-79.168c-5.28-4.608-11.872-6.912-18.496-6.912s-13.216 2.304-18.496 6.912l-90.464 79.168-287.424-321.632c17.216-10.816 37.408-17.28 59.264-17.28h674.24c21.824 0 42.048 6.464 59.264 17.28l-287.456 321.632zM79.488 664.416c-10.912-17.312-17.472-37.696-17.472-59.68v-449.472c0-19.712 5.504-37.952 14.432-54.048l283.808 317.632-280.768 245.568zM79.488 664.416z"  horiz-adv-x="1024" />

    
    <glyph glyph-name="zhihu" unicode="&#58906;" d="M510.163 865.020c268.172 0 485.569-217.397 485.569-485.569s-217.397-485.569-485.569-485.569-485.569 217.397-485.569 485.569 217.397 485.569 485.569 485.569zM765.727 179.983v408.062h-229.319v-408.062h40.982l14.892-51.217 72.093 51.217h101.353zM401.104 357.143h111.504c0 0 0 43.626-21.808 46.048-21.83 2.421-89.698 0-89.698 0v135.733h100.583c0 0-1.199 44.837-20.609 44.837-19.374 0-163.596 0-163.596 0l25.44 73.933c0 0-41.194-2.434-55.735-27.873-14.554-25.451-61.801-156.342-61.801-156.342s15.741-7.265 42.415 12.121c26.662 19.386 35.138 53.324 35.138 53.324l48.469 2.421 1.222-138.156c0 0-83.62 1.211-100.583 0-16.976-1.211-26.662-46.048-26.662-46.048h127.246c0 0-10.909-76.354-43.638-132.1-32.705-55.746-94.529-99.373-94.529-99.373s44.849-18.175 88.475 7.277c43.638 25.44 75.807 137.375 75.807 137.375l102.33-125.267c0 0 9.349 59.612-1.642 76.46-11.003 16.835-70.8 84.539-70.8 84.539l-26.127-23.029 18.593 74.119zM719.108 542.628v-316.292h-47.644l-60.753-45.804-13.249 45.804h-12.505v316.292z"  horiz-adv-x="1024" />

    
    <glyph glyph-name="wenjianjiafolder172" unicode="&#59153;" d="M341.187048 896 97.670095 896C70.656 896 48.761905 874.349714 48.761905 847.238095l0-195.047619 48.761905 0L97.52381 847.238095l243.809524 0 0-97.52381 633.904762 0 0-97.52381 48.761905 0L1024 749.763048C1024 776.679619 1002.203429 798.47619 975.335619 798.47619L390.095238 798.47619 390.095238 847.238095C390.095238 874.154667 368.737524 896 341.187048 896zM0 554.276571l0-633.173333C0-106.008381 21.406476-128 48.90819-128l974.994286 0C1050.86781-128 1072.761905-106.105905 1072.761905-78.848L1072.761905 554.276571C1072.761905 581.436952 1051.355429 603.428571 1023.902476 603.428571L48.90819 603.428571C21.894095 603.428571 0 581.534476 0 554.276571zM48.761905 554.666667l975.238095 0 0-633.904762L48.761905-79.238095 48.761905 554.666667z"  horiz-adv-x="1073" />

    
    <glyph glyph-name="facebook" unicode="&#59002;" d="M147.968 793.6l728.576 0c25.088 0 45.056-19.968 45.056-45.056l0-729.088c0-24.576-19.968-45.056-45.056-45.056l-208.896 0 0 317.44 106.496 0 15.872 123.392-122.368 0 0 78.848c0 35.84 10.24 60.416 61.44 60.416l65.536 0 0 110.592c-11.264 1.536-50.176 4.608-95.232 4.608-94.72 0-159.232-57.344-159.232-163.328l0-91.136-107.008 0 0-123.392 107.008 0 0-317.44-392.192 0c-25.088 0-45.568 20.48-45.568 45.056l0 729.088c0 25.088 20.48 45.056 45.568 45.056z"  horiz-adv-x="1024" />

    
    <glyph glyph-name="folder" unicode="&#58890;" d="M897.455 512c0.003-0.248 0.004-0.497 0.004-0.746v-383.578c0-34.743-28.779-63.677-64.28-63.677l-640.899-0c-35.056 0-64.28 28.805-64.28 64.337v383.663h769.455zM128 576v64.105c0 35.179 28.674 63.895 64.045 63.895h377.593c35.409 0 74.883-26.443 88.253-59.063l28.255-68.938h-558.147z"  horiz-adv-x="1024" />

    
    <glyph glyph-name="sousuosearch79" unicode="&#58925;" d="M1000.944149 6.556508 815.920946 191.515667C866.643818 264.205641 896.616424 352.394271 896.616424 447.691788c0 247.594221-200.713991 448.308212-448.308212 448.308212C200.713991 896 0 695.286009 0 447.691788c0-247.594221 200.713991-448.308212 448.308212-448.308212 95.297517 0 183.486147 29.972606 256.176121 80.695478l184.959159-184.959159c30.805179-30.805179 80.695478-30.805179 111.500657 0C1031.685284-74.138971 1031.685284-24.248671 1000.944149 6.556508zM448.308212 127.471637c-176.825568 0-320.220151 143.394584-320.220151 320.220151 0 176.825568 143.394584 320.220151 320.220151 320.220151s320.220151-143.394584 320.220151-320.220151C768.528363 270.866221 625.133779 127.471637 448.308212 127.471637z"  horiz-adv-x="1024" />

    
    <glyph glyph-name="stackoverflow" unicode="&#59403;" d="M812.88-36.576l-638.848 0 0 274.272-91.424 0 0-365.728 821.728 0 0 365.728-91.424 0 0-274.272zM274.576 262.848l18.848 89.728 447.424-94.272-18.848-89.152zM333.456 476.576l38.272 83.424 414.272-193.728-38.272-82.848zM448.304 680l58.272 70.272 350.848-293.152-58.272-70.272zM675.152 896l272.576-366.272-73.152-54.848-272.576 366.272zM264.88 55.424l0 90.848 457.152 0 0-90.848-457.152 0z"  horiz-adv-x="1024" />

    
    <glyph glyph-name="xiayiye" unicode="&#58934;" d="M448 601.6c-12.8 12.8-32 12.8-44.8 0s-12.8-32 0-44.8L576 384l-172.8-172.8c-12.8-12.8-12.8-32 0-44.8s32-12.8 44.8 0l0 0 192 198.4c12.8 12.8 12.8 32 0 44.8 0 0 0 0 0 0L448 601.6zM486.4 819.2C249.6 819.2 51.2 627.2 51.2 384s198.4-435.2 435.2-435.2 435.2 198.4 435.2 435.2l0 0C928 627.2 729.6 819.2 486.4 819.2zM486.4 12.8c-204.8 0-371.2 166.4-371.2 371.2s166.4 371.2 371.2 371.2 371.2-166.4 371.2-371.2C864 179.2 697.6 12.8 486.4 12.8z"  horiz-adv-x="1024" />

    
    <glyph glyph-name="fangwenliang" unicode="&#58999;" d="M213.633588 559.308725 102.371552 559.308725c-20.221554 0-37.080523-18.537192-37.080523-38.765909l0-549.542035 185.429223 0L250.720252 520.542816C250.719228 542.456918 233.855142 559.308725 213.633588 559.308725zM449.631534 796.999219 338.369497 796.999219c-20.221554 0-37.080523-18.543332-37.080523-40.457434l0-785.53998L486.71922-28.998195 486.71922 756.541785C486.71922 778.454864 469.860251 796.999219 449.631534 796.999219zM685.630503 358.713081 574.374606 358.713081c-20.228717 0-37.087687-18.537192-37.087687-40.452317l0-347.258958 185.430246 0 0 347.258958C722.717166 340.175889 705.859219 358.713081 685.630503 358.713081zM921.628448 559.308725 810.372551 559.308725c-20.228717 0-37.080523-18.537192-37.080523-38.765909l0-549.542035L958.708971-28.999219 958.708971 520.542816C958.708971 542.456918 941.857165 559.308725 921.628448 559.308725z"  horiz-adv-x="1024" />

    
    <glyph glyph-name="sousuo2" unicode="&#58938;" d="M970.937155 887.532525 64.352811 887.532525c-27.660419 0-50.240353-22.579934-50.240353-50.240353L14.112459-69.292172c0-27.660419 22.579934-50.240353 50.240353-50.240353L970.937155-119.532525c27.660419 0 50.240353 22.579934 50.240353 50.240353L1021.177508 837.292172C1021.177508 864.952591 998.597574 887.532525 970.937155 887.532525zM856.90849 80.864388l-42.337376-44.030871c-3.38699-3.38699-9.596472-3.38699-13.54796 0.564498l-181.203969 173.865491c-108.948181-72.820287-257.975744-63.223815-356.198456 31.047409-113.464168 108.948181-117.415656 289.587652-7.902977 403.051819 108.948181 113.464168 289.587652 117.415656 403.051819 7.902977 109.512679-104.996692 116.851158-276.039691 20.32194-389.503859l176.687982-169.914002C859.730981 90.46086 860.29548 84.815877 856.90849 80.864388zM305.958104 597.380375C223.541345 511.576626 225.799338 375.532525 312.167585 293.115766c85.803749-82.416759 221.84785-79.594267 304.264609 6.209482s79.594267 222.412348-6.209482 304.264609C524.983462 686.006615 388.374862 683.184123 305.958104 597.380375z"  horiz-adv-x="1024" />

    
    <glyph glyph-name="share2" unicode="&#58888;" d="M22.177092 397.094226M1058.95614 636.410754M86.370937 575.175327l53.26009 0 0-576.149571L86.370937-0.974243 86.370937 575.175327 86.370937 575.175327zM86.370937 51.272533l851.260445 0 0-52.245977L86.370937-0.973444C86.370937-0.973444 86.370937 51.272533 86.370937 51.272533zM885.187939 575.175327l52.443443 0 0-541.634372-52.443443 0L885.187939 575.175327zM487.888308 787.703633l50.787166 0 0-542.248356-50.787166 0C487.888308 245.455277 487.888308 787.703633 487.888308 787.703633zM512.66371 850.00839l35.042441-34.854569L321.641623 587.871119l-35.042441 34.854569C286.599182 622.725688 512.66371 850.00839 512.66371 850.00839zM739.401382 622.725088l-35.042441-34.854569L478.294412 815.153222l35.042441 34.854569L739.401382 622.725088 739.401382 622.725088z"  horiz-adv-x="1024" />

    
    <glyph glyph-name="qq" unicode="&#58909;" d="M909.937778 231.196444c-18.432 110.876444-95.829333 183.523556-95.829333 183.523556 11.064889 100.664889-29.496889 118.528-29.496889 118.528C776.106667 844.686222 517.432889 839.224889 512 839.082667c-5.432889 0.142222-264.135111 5.603556-272.611556-305.863111 0 0-40.561778-17.863111-29.496889-118.528 0 0-77.397333-72.647111-95.829333-183.523556 0 0-9.841778-187.335111 88.462222-22.954667 0 0 22.129778-62.435556 62.663111-118.528 0 0-72.504889-25.486222-66.332444-91.761778 0 0-2.474667-73.898667 154.823111-68.835556 0 0 110.563556 8.903111 143.758222 57.344l29.240889 0c33.166222-48.440889 143.758222-57.344 143.758222-57.344 157.240889-5.091556 154.794667 68.835556 154.794667 68.835556 6.115556 66.247111-66.332444 91.761778-66.332444 91.761778 40.533333 56.092444 62.663111 118.528 62.663111 118.528C919.751111 43.832889 909.937778 231.196444 909.937778 231.196444L909.937778 231.196444zM909.937778 231.196444"  horiz-adv-x="1024" />

    
    <glyph glyph-name="icons-" unicode="&#58987;" d="M485.010299 224.190271c-115.064642 0-208.661344 93.596701-208.661344 208.661344 0 115.043153 93.596701 208.639854 208.661344 208.639854 115.064642 0 208.661344-93.596701 208.661344-208.639854 0.001023-115.064642-93.595678-208.661344-208.661344-208.661344z m0 373.726773c-91.022063 0-165.086919-74.043367-165.086919-165.065429s74.064856-165.086919 165.086919-165.086919 165.086919 74.064856 165.086919 165.086919-74.063833 165.06543-165.086919 165.065429zM766.225075 122.977102l-165.319209 161.15026 30.425963 31.191396 165.320233-161.15026zM151.602813 483.55439h-87.149872v348.002902h347.983459v-87.149872h-260.833587zM412.4364-63.557292h-347.983459v347.982436h87.149872v-260.832564h260.833587zM959.546036-63.557292h-347.938434v87.149872h260.788561v260.832564h87.149873zM959.546036 483.57588h-87.149873v260.83154h-260.809027v87.149872h347.9589z"  horiz-adv-x="1024" />

    
    <glyph glyph-name="link1" unicode="&#59077;" d="M953.405 821.358l-4.028 4.042c-94.148 94.134-248.194 94.134-342.326 0L388.945 607.264c-94.134-94.132-94.134-248.176 0-342.31l4.026-4.026c7.832-7.848 16.146-14.924 24.736-21.458l79.848 79.85c-9.302 5.494-18.126 12.072-26.116 20.06l-4.042 4.042c-51.114 51.098-51.114 134.272 0 185.39L685.525 746.924c51.116 51.118 134.274 51.118 185.386 0l4.042-4.024c51.1-51.116 51.1-134.292 0-185.39l-98.686-98.686c17.132-42.308 25.248-87.4 24.538-132.386l152.604 152.604c94.134 94.136 94.134 248.178-0.004 342.316zM631.051 507.066c-7.832 7.832-16.146 14.922-24.736 21.44l-79.848-79.832c9.304-5.496 18.126-12.074 26.116-20.062l4.042-4.04c51.116-51.116 51.116-134.272 0-185.388L338.495 21.05c-51.118-51.102-134.276-51.102-185.388 0l-4.042 4.042c-51.098 51.12-51.098 134.276 0 185.388l98.688 98.686c-17.134 42.306-25.246 87.402-24.538 132.386l-152.602-152.598c-94.136-94.132-94.136-248.178 0-342.324l4.026-4.032c94.152-94.128 248.192-94.128 342.328 0l218.11 218.118c94.134 94.132 94.134 248.194 0 342.326l-4.026 4.024z"  horiz-adv-x="1024" />

    
    <glyph glyph-name="tagso" unicode="&#58964;" d="M280 616.992q-34.016 0-58.496-24t-24.512-58.496 24.512-59.008 58.496-24.512 58.496 24.512 24.512 59.008-24.512 58.496-58.496 24z m0-103.008q-8 0-14.016 6.016t-6.016 14.016 6.016 14.016 14.016 6.016 14.016-6.016 6.016-14.016-6.016-14.016-14.016-6.016zM910.016 352L550.016 714.016q-12 12.992-30.016 12.992H157.984q-26.016 0-44-18.016t-18.016-43.008v-224q0-16.992 12-30.016l359.008-354.016q18.016-18.016 43.488-18.016t44.512 18.016l28 28 28-28q19.008-18.016 44-18.016t44 18.016l210.016 208q18.016 16.992 18.016 42.496t-16.992 43.488z m-145.024-86.016q18.016 16.992 18.016 42.496t-18.016 43.488l-308.992 312H512l351.008-355.008-208-204.992-27.008 26.016zM159.008 451.008V664H368l351.008-355.008-140-138.016-36.992-36-31.008-31.008z"  horiz-adv-x="1024" />

    
    <glyph glyph-name="guidang" unicode="&#59005;" d="M125.9 536.6l-37.8-45.4 37.8 60.5 362.9-226.9c16.1-9.4 44.3-9.4 60.5 0l362.9 226.9 37.8-60.5-37.8 45.4L950 582l-37.8-60.5-362.9 226.8c-16.1 9.5-44.3 9.4-60.5 0L125.9 521.5 88.1 582l37.8-45.4z m-37.8-45.4c-30.6 26.3-30.6 64.4 0 90.7L451 816.4c38.7 20.3 97.3 20.4 136.1 0l363-234.4c30.6-26.3 30.6-64.4 0-90.7l-363-234.5c-38.7-20.3-97.3-20.4-136.1 0L88.1 491.2z m-7.6-68c-22.6-28.6-20.2-63.3 7.6-90.7L451 98c38.8-20.2 97.3-20.2 136.1 0L950 332.4c27.8 27.5 30.1 62.1 7.6 90.7-3-2.6-5.3-5.1-7.6-7.6L587.1 181.2c-38.8-20.3-97.3-20.3-136.1 0L88.1 415.6c-2.3 2.5-4.6 5-7.6 7.6z m0-158.8c-22.6-28.6-20.2-63.3 7.6-90.7L451-60.8c38.8-20.2 97.3-20.2 136.1 0L950 173.6c27.8 27.5 30.1 62.1 7.6 90.7-3-2.6-5.3-5.1-7.6-7.5L587.1 22.4c-38.8-20.2-97.3-20.3-136.1 0L88.1 256.8c-2.3 2.5-4.6 5-7.6 7.6z"  horiz-adv-x="1024" />

    
    <glyph glyph-name="tag" unicode="&#58985;" d="M957.875 491.069l-11.859 270.539c-1.52 34.69-29.714 62.242-64.429 62.956l-270.744 5.603a65.843 65.843 0 0 1-48.463-19.814L87.562 324.431c-25.314-25.902-24.828-67.81 1.074-93.124L371.238-44.84c25.905-25.31 67.812-24.828 93.125 1.079l474.82 485.921a65.851 65.851 0 0 1 18.692 48.909zM827.794 616.347c-10.11-42.928-53.107-69.538-96.04-59.427s-69.537 53.112-59.427 96.04c10.111 42.933 53.107 69.538 96.04 59.427s69.537-53.107 59.427-96.04z"  horiz-adv-x="1024" />

    
    <glyph glyph-name="account-box" unicode="&#58882;" d="M256 170.666667c0 85.333333 170.666667 132.266667 256 132.266666s256-46.933333 256-132.266666v-42.666667H256m384 384a128 128 0 0 0-128-128 128 128 0 0 0-128 128 128 128 0 0 0 128 128 128 128 0 0 0 128-128M128 682.666667v-597.333334a85.333333 85.333333 0 0 1 85.333333-85.333333h597.333334a85.333333 85.333333 0 0 1 85.333333 85.333333V682.666667a85.333333 85.333333 0 0 1-85.333333 85.333333H213.333333a85.333333 85.333333 0 0 1-85.333333-85.333333z"  horiz-adv-x="1024" />

    
    <glyph glyph-name="account" unicode="&#58883;" d="M512 725.333333a170.666667 170.666667 0 0 0 170.666667-170.666666 170.666667 170.666667 0 0 0-170.666667-170.666667 170.666667 170.666667 0 0 0-170.666667 170.666667 170.666667 170.666667 0 0 0 170.666667 170.666666m0-426.666666c188.586667 0 341.333333-76.373333 341.333333-170.666667v-85.333333H170.666667v85.333333c0 94.293333 152.746667 170.666667 341.333333 170.666667z"  horiz-adv-x="1024" />

    
    <glyph glyph-name="telegram" unicode="&#59611;" d="M417.28 100.266667l11.946667 180.48 327.68 295.253333c14.506667 13.226667-2.986667 19.626667-22.186667 8.106667L330.24 328.533333 155.306667 384c-37.546667 10.666667-37.973333 36.693333 8.533333 55.466667l681.386667 262.826666c31.146667 14.08 61.013333-7.68 49.066666-55.466666l-116.053333-546.56c-8.106667-38.826667-31.573333-48.213333-64-30.293334L537.6 200.533333l-84.906667-82.346666c-9.813333-9.813333-17.92-17.92-35.413333-17.92z"  horiz-adv-x="1024" />

    
    <glyph glyph-name="form_search" unicode="&#58903;" d="M1002.624 48.384l-99.264 100.992c37.12 49.024 49.984 96.384 49.984 162.88 0 160.32-129.28 290.432-288.768 290.432-159.36 0-288.512-130.112-288.512-290.432 0-160.384 130.112-295.872 289.472-295.872 54.72 3.008 85.12 12.736 145.152 45.376l98.88-100.352c23.616-24.64 55.232-32.768 77.248-19.776 0.064 0 71.808 38.72 15.808 106.752zM543.36 190.144c-31.043 31.078-50.242 73.994-50.242 121.393 0 0.253 0.001 0.505 0.002 0.758-0.002 0.267-0.003 0.629-0.003 0.992 0 47.342 19.202 90.199 50.242 121.208 32.385 32.641 75.521 50.561 121.345 50.561 45.888 0 88.896-17.92 121.344-50.56 32.384-32.64 50.368-76.032 50.368-122.112 0-46.272-17.856-89.472-50.24-122.24-32.512-32.64-75.52-50.496-121.472-50.496-0.226-0.001-0.494-0.002-0.762-0.002-47.191 0-89.87 19.318-120.561 50.477zM0 896h896v-127.168h-896zM0 638.976h318.016v-126.912h-318.016zM0 126.272h318.016v-125.248h-318.016zM0 382.72h254.976v-127.744h-254.976z"  horiz-adv-x="1024" />

    
    <glyph glyph-name="tags" unicode="&#59498;" d="M191.77935 691.130006c-24.37413 0-47.239907-9.442046-64.38438-26.585495-17.144472-17.144472-26.585495-40.010249-26.585495-64.38438s9.442046-47.239907 26.585495-64.384379c17.144472-17.143449 40.010249-26.585495 64.38438-26.585495s47.240931 9.442046 64.384379 26.585495c17.144472 17.144472 26.586518 40.010249 26.586518 64.384379s-9.442046 47.239907-26.586518 64.38438c-17.144472 17.144472-40.009226 26.585495-64.384379 26.585495z m0-130.775462c-22.320355 0-39.804565 17.48421-39.804565 39.805587 0 22.320355 17.48421 39.804565 39.804565 39.804565 22.321378 0 39.805588-17.48421 39.805587-39.804565 0-22.321378-17.48421-39.805588-39.805587-39.805587zM997.938949 370.107595l-0.184195 0.191358-365.40934 364.962156c-30.801517 30.757514-86.661755 53.951773-129.936351 53.951773v-51.16531c29.66974 0 72.616878-17.85567 93.780896-38.990013l365.011275-364.565113c7.387247-7.779174 11.619642-18.181081 11.619641-28.578895 0-10.31595-4.270257-20.744463-11.422143-27.896351L676.563498-14.469294l36.654828-35.69599 284.490379 292.13243c16.702404 16.773012 26.278503 40.068578 26.278504 63.945381 0 23.562649-9.495258 46.959521-26.04826 64.195068zM827.823504 305.913551c0 23.560602-9.494235 46.958498-26.04826 64.193021l-0.184195 0.191358L436.181709 735.261109c-30.801517 30.757514-86.661755 53.951773-129.936351 53.951773H93.697497c-24.122397 0-46.918589-9.510608-64.188928-26.78197-17.270339-17.270339-26.78197-40.066531-26.78197-64.188928v-212.509998c0-43.61331 23.231097-99.280144 54.052057-129.553635L421.927053-9.416208c16.71366-16.821107 40.075741-26.466792 64.096831-26.466791 23.613814 0 47.021943 9.504468 64.221674 26.074865l0.180101 0.173962 251.003708 251.489778c16.774035 16.780175 26.394137 40.127929 26.394137 64.057945z m-62.588477-27.895327L514.592546 26.889673c-7.631818-7.271614-18.293645-11.608386-28.567639-11.608386-10.338463 0-20.73116 4.248767-27.849278 11.411911l-365.293707 365.739868-0.194428 0.192382c-21.028942 20.609387-38.794561 63.24544-38.794561 93.104491v212.509998c0 21.576411 18.228153 39.805588 39.804564 39.805588h212.547861c29.66974 0 72.616878-17.85567 93.780896-38.990013l365.011275-364.565112c7.387247-7.779174 11.619642-18.181081 11.619641-28.578896 0.001023-10.313903-4.269233-20.742417-11.422143-27.89328z"  horiz-adv-x="1024" />

    
    <glyph glyph-name="iconsf-copy" unicode="&#58880;" d="M247.748 207.554c25.626-23.21 62.458-44.043 97.697-44.043 25.626 0 54.448 11.213 54.448 41.646 0 33.627-39.24 39.232-83.28 58.457-49.647 21.625-91.291 48.043-91.291 111.312 0 82.479 66.466 117.709 148.944 117.709 44.844 0 92.895-10.415 127.322-32.832v-9.605l-32.029-63.269c-22.418 16.814-52.853 28.022-86.487 28.022-29.626 0-48.043-12.003-48.043-35.229 0-30.422 35.238-36.834 79.279-53.648 60.855-23.227 97.688-48.851 97.688-113.708 0-84.877-66.459-121.724-154.542-121.724-56.060 0-100.903 15.222-143.34 47.247v9.605l33.636 60.061zM609.644 91.465c0 8.122 1.61 229.148 2.416 305.529-21.91-0.807-44.692-0.807-51.168-0.807l0.807 82.070c6.507 0 28.452 0 49.555-0.807 0 3.255-1.61 70.696-1.61 73.129 0 91.815 53.618 125.955 123.504 125.955 30.064 0 60.93-4.883 91.834-17.883v-12.18l-23.587-65.007c-12.987 7.315-27.615 11.374-40.633 11.374-22.748 0-37.377-11.374-37.377-54.439 0-14.628 0.837-57.693 0.837-60.949 24.361 0.807 70.696 0.807 77.172 0.807l-0.807-82.070c-6.509 0-52.812 0-77.204 0.807 1.642-76.38 1.642-297.407 1.642-305.529h-115.387z"  horiz-adv-x="1024" />

    
    <glyph glyph-name="ziyuan" unicode="&#58941;" d="M516.009-128h-8.49c-280.245 0.537-507.252 227.709-507.519 507.966l-0 8.515c0.536 280.080 227.44 506.984 507.469 507.519l8.54 0c280.282-0.268 507.455-227.275 507.991-507.468l0-8.541c-0.268-280.448-227.543-507.723-507.965-507.991zM507.519 830.438c-243.978-0.268-441.689-197.979-441.957-441.931l-0-8.516c0.268-243.978 197.979-441.689 441.931-441.957l8.516-0c243.978 0.268 441.689 197.979 441.957 441.931l0 8.516c-0.268 243.978-197.979 441.689-441.931 441.957zM289.135 276.695c-18.034 0.261-32.553 14.942-32.553 33.014 0 9.003 3.603 17.164 9.446 23.12l225.926 225.926c5.998 6.118 14.348 9.91 23.584 9.91 9.236 0 17.586-3.792 23.578-9.905l220.276-220.276c6.036-6.036 9.769-14.374 9.769-23.584 0-18.42-14.932-33.352-33.352-33.352-9.21 0-17.548 3.733-23.584 9.769l-197.159 197.631-202.819-202.819c-5.95-5.833-14.108-9.433-23.107-9.433-0.002 0-0.003 0-0.005 0z"  horiz-adv-x="1024" />

    
    <glyph glyph-name="catalog" unicode="&#58899;" d="M63.819 126.609h121.375v-119.959h-121.375v119.959zM310.141 126.609h650.322v-119.959h-650.322v119.959zM310.141 765.382h650.322v-119.928h-650.322v119.928zM310.141 435.775h650.322v-119.928h-650.322v119.928zM63.819 435.775h121.375v-119.928h-121.375v119.928zM63.819 765.382h121.375v-119.928h-121.375v119.928z"  horiz-adv-x="1024" />

    
    <glyph glyph-name="cebianlantubiao-" unicode="&#58898;" d="M512 896C230.4 896 0 665.6 0 384s230.4-512 512-512 512 230.4 512 512S793.6 896 512 896z m0-938.666667C277.333333-42.666667 85.333333 149.333333 85.333333 384S277.333333 810.666667 512 810.666667s426.666667-192 426.666667-426.666667-192-426.666667-426.666667-426.666667zM593.066667 610.133333c-21.333333 21.333333-51.2 34.133333-81.066667 34.133334s-59.733333-12.8-81.066667-34.133334l-179.2-179.2c-17.066667-17.066667-17.066667-42.666667 0-59.733333s42.666667-17.066667 59.733334 0L469.333333 529.066667v-396.8c0-25.6 17.066667-42.666667 42.666667-42.666667s42.666667 17.066667 42.666667 42.666667V529.066667l153.6-153.6c8.533333-8.533333 21.333333-12.8 29.866666-12.8s21.333333 4.266667 29.866667 12.8c17.066667 17.066667 17.066667 42.666667 0 59.733333l-174.933333 174.933333z"  horiz-adv-x="1024" />

    
    <glyph glyph-name="totop" unicode="&#58937;" d="M107.209 146.301c-17.683 0-36.409 7.282-48.892 20.804-24.967 27.047-23.926 69.697 3.121 95.703l399.458 374.492c27.047 24.967 69.697 23.926 95.703-3.121 24.967-27.047 23.926-69.697-3.121-95.703l-400.498-373.451c-13.523-12.483-29.126-18.725-45.771-18.726zM906.125 146.301c-16.644 0-33.288 6.242-45.771 17.683l-399.458 374.492c-27.047 24.967-28.087 67.617-3.121 95.703 24.967 27.047 67.617 28.087 95.703 3.121l399.458-374.492c27.047-24.967 28.087-67.617 3.121-95.703-13.523-13.523-31.208-20.805-49.932-20.805z"  horiz-adv-x="1024" />

    
    <glyph glyph-name="telegram1" unicode="&#59185;" d="M679.424 149.138286l84.004571 395.995428c7.424 34.852571-12.580571 48.566857-35.437714 40.009143l-493.714286-190.281143c-33.718857-13.129143-33.133714-32-5.705142-40.557714l126.281142-39.424 293.156572 184.576c13.714286 9.142857 26.294857 3.986286 16.018286-5.156571l-237.129143-214.272-9.142857-130.304c13.129143 0 18.870857 5.705143 25.709714 12.580571l61.696 59.428571 128-94.281142c23.442286-13.129143 40.009143-6.290286 46.299428 21.723428zM1024 384c0-282.843429-229.156571-512-512-512S0 101.156571 0 384 229.156571 896 512 896s512-229.156571 512-512z"  horiz-adv-x="1024" />

    
    <glyph glyph-name="instagram" unicode="&#59293;" d="M851.428571 81.142857V451.428571h-77.142857q11.428571-36 11.428572-74.857142 0-72-36.571429-132.857143T649.714286 147.428571t-137.142857-35.428571q-112.571429 0-192.571429 77.428571T240 376.571429q0 38.857143 11.428571 74.857142H170.857143v-370.285714q0-14.857143 10-24.857143T205.714286 46.285714h610.857143q14.285714 0 24.571428 10t10.285714 24.857143z m-162.285714 304.571429q0 70.857143-51.714286 120.857143T512.571429 556.571429q-72.571429 0-124.285715-50T336.571429 385.714286t51.714285-120.857143T512.571429 214.857143q73.142857 0 124.857142 50T689.142857 385.714286z m162.285714 205.714285V685.714286q0 16-11.428571 27.714285t-28 11.714286h-99.428571q-16.571429 0-28-11.714286t-11.428572-27.714285v-94.285715q0-16.571429 11.428572-28t28-11.428571h99.428571q16.571429 0 28 11.428571t11.428571 28z m99.428572 118.857143v-652.571428q0-46.285714-33.142857-79.428572t-79.428572-33.142857H185.714286q-46.285714 0-79.428572 33.142857t-33.142857 79.428572V710.285714q0 46.285714 33.142857 79.428572t79.428572 33.142857h652.571428q46.285714 0 79.428572-33.142857t33.142857-79.428572z"  horiz-adv-x="1024" />

    
    <glyph glyph-name="fangwenliang1" unicode="&#58884;" d="M947.746 368.165c-0.844-1.052-48.273-62.988-125.76-125.672-77.454-62.387-185.546-126.945-309.985-127.266-124.442 0.322-232.53 64.88-309.987 127.266-77.486 62.682-124.916 124.619-125.76 125.672L64 384.164l12.254 15.976c0.844 1.053 48.274 62.989 125.76 125.675 77.456 62.382 185.73 126.635 310.172 126.958 124.44-0.323 232.345-64.576 309.799-126.958 77.486-62.684 124.915-124.621 125.76-125.675L960 384.164l-12.254-15.999zM512.187 540.536c-86.531 0-156.68-70.106-156.68-156.586 0-86.482 70.149-156.591 156.68-156.591 86.532 0 156.679 70.109 156.679 156.591 0 86.48-70.147 156.586-156.679 156.586z m0-268.822c-61.861 0-112.009 50.25-112.009 112.236 0 61.983 50.148 112.233 112.009 112.233 61.862 0 112.01-50.25 112.01-112.233 0-61.986-50.15-112.236-112.01-112.236z"  horiz-adv-x="1024" />

    
    <glyph glyph-name="CN_bilibiliB" unicode="&#58958;" d="M419.500653 586.695807c-17.514669 9.487112-35.029338 18.974225-52.544007 28.582967l-87.208457 47.435563c-11.798076 6.446371-16.663262 16.298373-9.973631 28.461337 6.689631 12.284594 17.879558 13.136002 29.434374 6.81126 68.112602-37.097042 136.346835-74.072455 204.337808-111.656016 17.39304-9.608742 48.773489-3.892149 59.841786 12.406224 34.786079 50.476304 69.450529 100.952607 104.114978 151.550541 1.216296 1.824445 2.432593 3.648889 3.648889 5.351704 9.852001 13.74415 21.163559 17.39304 31.380449 9.365483 11.798076-9.365483 9.852001-20.433781 2.189334-31.623708-14.109039-20.55541-28.218078-41.23245-42.205488-61.787861-19.460744-28.582967-38.921487-57.165934-60.693194-88.911272H846.907234c22.866374 0 26.393633-3.648889 26.515263-26.515263 0.243259-156.780615 0.364889-313.439601 0.608148-470.220217 0-22.379855-4.013778-26.272004-26.880152-26.393633-5.959853 0-12.041335-0.608148-17.879558 0.12163-21.650077 2.432593-37.461931 0.364889-45.00297-26.393634-6.81126-24.08267-32.475116-36.367265-55.584748-33.934671-26.758522 2.797482-44.394821 18.609336-51.206082 43.543413-4.135408 15.082076-11.189928 17.14978-24.812448 17.028151-94.019717-0.608148-187.917805-0.364889-281.937522-0.12163-10.825039 0-17.14978-0.973037-20.312151-14.109039-6.81126-28.218078-30.042523-46.097636-55.706379-46.584155-26.636893-0.486519-49.746526 16.906521-57.530823 46.219266-3.284 12.284594-8.757335 15.082076-20.068892 14.473928-14.595558-0.851408-29.312745-0.364889-44.029932-0.121629-16.055113 0.364889-23.109633 6.93289-23.109633 22.623114 0.12163 159.334838 0.364889 318.791305 0.729778 478.247773 0 16.541632 6.689631 22.014966 25.055707 22.014966 75.532011 0.12163 151.064022 0 226.474403 0h15.811855c0.486519 1.337926 0.973037 2.675852 1.459555 4.135408z m417.554579-490.289108V546.922912H188.647583v-450.516213h648.407649z m-520.939779-37.94845H271.477373c3.040741-12.771113 9.243853-21.771707 21.163558-22.501485 13.257632-0.973037 19.582373 8.878964 23.474522 22.501485z m394.444946 0.12163c4.500297-13.62252 10.581779-23.596152 23.961041-22.623115 12.041335 0.851408 17.636299 10.21689 21.285188 22.623115h-45.246229zM513.398741 127.422259H252.746407c-25.298967 0-29.312745 4.013778-29.312745 29.312745 0.12163 108.980164 0.243259 217.960328 0.486519 327.062122 0 22.988003 4.743556 27.73156 27.609929 27.731559h523.007484c23.231263 0 27.974819-4.621927 28.096448-27.366671 0.364889-109.588312 0.608148-219.054995 0.729778-328.643306 0-23.474522-4.865186-27.974819-29.069486-28.096449H513.398741z m250.678703 38.556598V472.607198H262.233519v-306.628341h501.843925zM515.709704 220.34731c-6.689631-4.743556-12.892743-10.095261-19.947262-13.86578-23.231263-12.284594-46.340896-11.189928-67.747713 3.770519-23.596152 16.541632-34.056301 40.745932-31.988598 68.96401 0.486519 6.081482 11.676446 15.690224 18.122818 15.933484 6.324742 0.243259 14.352298-8.514075 18.974225-15.203706 3.648889-5.351704 2.067704-13.86578 4.621926-20.312151 4.865186-12.284594 13.86578-23.961041 27.366671-21.041929 9.973631 2.067704 18.974225 12.162965 26.393633 20.43378 3.648889 4.135408 3.040741 12.284594 4.013779 18.609337 1.702815 12.041335 8.635705 19.339114 20.433781 19.095854 10.703409-0.243259 17.636299-6.81126 19.095854-18.487706 0.851408-7.419408 1.094667-16.663262 5.473334-21.528448 7.05452-7.905927 17.028151-17.39304 26.150374-17.757928 8.149186-0.243259 18.122817 9.730372 24.569189 17.514669 4.257038 5.108445 4.013778 14.230669 5.351705 21.650077 2.189334 11.798076 8.878964 18.974225 21.041929 18.122818 12.041335-0.973037 18.366077-8.757335 17.879558-21.041929-1.216296-31.01556-13.379261-56.192897-42.083858-70.058677-26.758522-12.892743-51.81423-7.419408-73.707566 12.527853-1.216296 0.851408-2.554223 1.581185-4.013779 2.675853zM729.777883 336.381993c0.364889-18.366077-14.595558-28.461337-28.461337-20.55541-37.097042 21.163559-73.585937 43.421784-109.953201 65.801639-9.608742 5.959853-11.676446 15.690224-6.081483 25.542226 5.716593 10.095261 15.811854 12.771113 25.177337 7.419408 37.461931-21.650077 74.558974-43.908303 111.412757-66.653046 4.257038-2.797482 6.324742-9.243853 7.905927-11.554817zM413.175912 407.048818c3.40563-3.40563 12.162965-8.149186 13.136002-13.987409 1.094667-6.93289-2.554223-18.974225-7.905928-21.650077-32.231857-16.541632-65.315121-31.380449-98.520014-46.097637-10.095261-4.500297-21.163559-1.094667-23.717781 9.852002-1.702815 7.176149 1.337926 20.67704 6.446371 23.352892 33.204894 17.028151 67.504454 31.745338 101.439126 47.192303 1.459556 0.608148 3.162371 0.486519 9.122224 1.337926z"  horiz-adv-x="1024" />

    
    <glyph glyph-name="CN_VEX" unicode="&#58979;" d="M695.998171 896H43.485867C19.465752 896 0 876.719543 0 852.943238v-297.915733h611.913143c12.726857 0 24.888076-5.188267 33.635962-14.336l142.014171-148.636038c3.159771-3.31581 3.179276-8.484571 0.029257-11.810134L645.56861 230.175695C636.820724 220.930438 627.204876 213.333333 614.4 213.333333H0v-298.276571C0-108.719543 19.465752-128 43.485867-128h652.385523c14.37501 0 28.155124 5.656381 38.317105 15.720838l440.76861 436.760381a86.308571 86.308571 0 0 1-0.263315 123.104305L734.159238 880.4352A54.4768 54.4768 0 0 1 695.998171 896z"  horiz-adv-x="1200" />

    
    <glyph glyph-name="flashlight_fill" unicode="&#59132;" d="M830.016 441.76a32 32 0 0 1-26.112 20.736l-237.216 29.344 59.136 236.384a31.968 31.968 0 0 1-54.688 29.312L200.32 350.72a32 32 0 0 1 19.712-53.312l235.648-29.28-60.896-236.32a32.032 32.032 0 0 1 54.56-29.664l374.208 406.944a32 32 0 0 1 6.464 32.672"  horiz-adv-x="1024" />

    
    <glyph glyph-name="folder_icon" unicode="&#58982;" d="M928.67 689.56h-394.53c-10.141 0.001-19.647 2.719-27.831 7.465l-155.769 88.975c-15.851 9.208-34.88 14.644-55.179 14.65l-200.031-0c-45.998-0.051-83.273-37.323-83.33-83.315l-0-666.665c0.051-46.001 37.329-83.279 83.325-83.33l833.345-0c46.001 0.051 83.279 37.329 83.33 83.325l0 555.555c-0.046 46.006-37.325 83.289-83.325 83.34zM956.45 50.67c-0.011-15.338-12.442-27.769-27.779-27.78l-833.341-0c-15.338 0.011-27.769 12.442-27.78 27.779l-0 416.661h888.89zM67.56 522.89v194.44c0.011 15.338 12.442 27.769 27.779 27.78l200.081 0c0.004 0 0.008 0 0.013 0 10.142 0 19.649-2.717 27.834-7.463l155.733-88.997c15.853-9.209 34.885-14.646 55.186-14.65l394.484 0c15.338-0.011 27.769-12.442 27.78-27.779l0-83.331z"  horiz-adv-x="1024" />

    
    <glyph glyph-name="flash" unicode="&#58933;" d="M746.752 382.592l-180.949333 104.874667 91.221333 218.922666A42.794667 42.794667 0 0 1 618.88 768a42.837333 42.837333 0 0 1-26.538667-9.130667l-2.986666-2.56-320-302.933333a42.752 42.752 0 0 1 7.893333-67.925333l180.992-104.96-92.288-221.44a42.624 42.624 0 0 1 68.736-47.36l320 303.018666a42.752 42.752 0 0 1-7.936 67.882667z"  horiz-adv-x="1024" />

    
    <glyph glyph-name="link2" unicode="&#58881;" d="M513 480h-1 1zM737 576H640s52-34 63.2-96h33.8c35.2 0 63-27.8 63-63v-64c0-35.2-27.8-65-63-65h-224c-35.2 0-65 29.8-65 65V416h-96v-63c0-23 5-45 13.8-65 25.2-56.4 81.8-96 147.2-96h224c88.4 0 159 72.6 159 161v64c0 88.4-70.6 159-159 159zM659.2 480c-24.2 56.6-80.2 96-146.2 96h-224c-88.4 0-161-70.6-161-159v-64c0-88.4 72.6-161 161-161H384s-51.6 34-64.2 96h-30.8c-35.2 0-65 29.8-65 65v64c0 35.2 29.8 63 65 63h224c35.2 0 63-27.8 63-63V352h96v65c0 22.4-4.6 43.8-12.8 63z"  horiz-adv-x="1024" />

    
    <glyph glyph-name="rss" unicode="&#58962;" d="M819.2-128C819.2 321.408 449.408 691.2 0 691.2V896c561.728 0 1024-462.272 1024-1024h-204.8zM140.416 152.96c77.44 0 140.48-63.04 140.48-140.544 0-77.44-63.36-140.416-140.8-140.416A140.288 140.288 0 0 0 0 12.416c0 77.44 62.912 140.48 140.416 140.48zM678.784-128h-199.04c0 263.232-216.512 479.808-479.744 479.808v199.04c372.352 0 678.784-306.56 678.784-678.848z"  horiz-adv-x="1024" />

    
    <glyph glyph-name="segmentfault" unicode="&#58892;" d="M169.916413 155.58372999999995c33.172517-30.046317 80.854493-57.014528 126.47246-57.014528 33.172517 0 70.485331 14.514575 70.485331 53.91084 0 43.532469-50.79692 50.78771-107.809401 75.674517-64.269769 27.994588-118.179586 62.193481-118.179586 144.096862 0 106.771769 86.043678 152.378479 192.815447 152.378479 58.052161 0 120.255875-13.483082 164.822906-42.502l0-12.434194-41.464367-81.904405c-29.020964 21.765723-68.420299 36.276205-111.960954 36.276205-38.352493 0-62.193481-15.538905-62.193481-45.604664 0-39.380916 45.616944-47.682999 102.630449-69.449745 78.779228-30.067806 126.461203-63.240323 126.461203-147.198503 0-109.87648-86.034469-157.576875-200.061478-157.576875-72.570829 0-130.62299 19.706831-185.560206 61.164035L126.374734 77.83292500000005 169.916413 155.58372999999995zM638.40441 5.302005000000008c0 10.514471 2.084475 296.641117 3.128247 395.519102-28.364001-1.043772-57.854663-1.043772-66.23861-1.043772l1.043772 106.241696c8.42488 0 36.83186 0 64.152089-1.043772 0 4.212952-2.084475 91.518367-2.084475 94.668103 0 118.858038 69.409836 163.05361 159.882384 163.05361 38.918381 0 78.877465-6.319939 118.881574-23.151279l0-15.767102-30.53341-84.154655c-16.811898 9.469676-35.749202 14.724353-52.599985 14.724353-29.447682 0-48.38601-14.724353-48.38601-70.473051 0-18.936281 1.083681-74.686003 1.083681-78.899978 31.53625 1.043772 91.518367 1.043772 99.903338 1.043772l-1.043772-106.241696c-8.426927 0-68.367087 0-99.943246 1.043772 2.12643-98.877985 2.12643-385.004631 2.12643-395.519102L638.40441 5.302005000000008z"  horiz-adv-x="1024" />

    
    <glyph glyph-name="share3" unicode="&#59265;" d="M436.729149-54.858658a36.716954 36.716954 0 0 0-36.570671 36.643812V182.558138c0 24.575491 3.949632 58.513074 23.697795 81.040607l418.075911 488.584165-727.463788-390.282201 231.711772-74.823593a36.790095 36.790095 0 0 0-22.527534-69.849981L38.91339 309.238943c-33.645017 10.459212-38.179781 35.619834-38.764912 42.933968-0.511989 7.314134 0 32.621039 31.304495 48.419568L946.670586 891.590308a36.424388 36.424388 0 0 0 32.547897 1.097121 39.057477 39.057477 0 0 0 22.673817-4.242198c8.996385-4.607905 28.744547-19.455597 19.967586-56.09941l-143.576455-734.485357c-0.146283-0.511989-0.146283-1.09712-0.365706-1.609109a72.336787 72.336787 0 0 0-34.157007-46.225328 60.926738 60.926738 0 0 0-49.224123-5.119894l-285.251234 89.232437a36.790095 36.790095 0 0 0 21.942402 70.069406l276.693697-86.745632 122.146042 624.846485-450.989516-526.617663c-1.828534-2.340523-5.99759-14.043138-5.99759-33.133028v-200.772984a36.424388 36.424388 0 0 0-36.424388-36.643812z"  horiz-adv-x="1024" />

    
    <glyph glyph-name="number_" unicode="&#59260;" d="M590.4384 461.6192A230.4 230.4 0 0 0 716.8 256v-51.2a230.4 230.4 0 1 0-460.8 0v51.2a230.4 230.4 0 0 0 126.3616 205.6192A217.6 217.6 0 0 0 268.8 652.8v25.6a217.6 217.6 0 1 0 435.2 0v-25.6a217.6 217.6 0 0 0-113.5616-191.1808zM486.4 844.8a166.4 166.4 0 0 1-166.4-166.4v-25.6a166.4 166.4 0 1 1 332.8 0v25.6A166.4 166.4 0 0 1 486.4 844.8z m0-409.6A179.2 179.2 0 0 1 307.2 256v-51.2a179.2 179.2 0 0 1 358.4 0v51.2A179.2 179.2 0 0 1 486.4 435.2z"  horiz-adv-x="1024" />

    
    <glyph glyph-name="tools" unicode="&#59234;" d="M732.16 445.952h-12.288V518.144c0 37.888-31.744 69.12-70.656 69.12h-73.216c1.024 7.168 1.024 14.848 1.024 22.016 0 75.776-62.976 137.728-140.288 137.728S296.448 685.056 296.448 609.28c0-7.168 0-14.848 1.024-22.016H224.256c-38.912 0-70.656-31.232-70.656-69.12v-102.4c0-9.216 3.584-15.872 10.752-21.504 7.168-5.632 14.848-7.168 23.552-5.632 7.68 1.536 16.384 3.072 22.528 3.072 46.08 0 84.992-38.4 84.992-83.456 0-46.08-37.888-83.456-84.992-83.456-6.656 0-14.848 1.536-22.528 3.072-7.68 2.048-16.896-0.512-23.552-5.632-7.168-5.12-10.752-12.288-10.752-21.504v-102.4c0-37.888 31.744-69.12 70.656-69.12H650.24c19.456 0 38.4 8.192 51.712 22.016 12.288 13.312 18.432 29.696 17.92 47.104v72.192h12.288c77.312 0 140.288 61.952 140.288 137.728 0 75.776-62.976 137.728-140.288 137.728z m-66.048-239.616v-105.984c0-8.192-7.168-15.36-15.872-15.36H224.768c-8.704 0-15.872 6.656-15.872 15.36v70.656c0.512 0 1.536 0 2.048 0.512 77.312 0.512 139.776 61.952 139.776 137.728 0 37.376-14.848 72.704-41.984 98.816-27.136 26.112-62.976 39.936-100.352 38.912V517.632c0 8.192 7.168 15.36 15.872 15.36h110.08c8.704 0 17.92 4.608 23.552 12.288 4.608 6.656 5.632 15.36 2.048 25.088-5.12 11.264-8.192 24.064-8.192 36.352 0 46.08 37.888 83.456 84.992 83.456 46.08 0 84.992-38.4 84.992-83.456 0-10.752-1.024-23.04-7.68-35.84-4.608-7.68-3.584-18.432 1.536-25.6 5.12-6.144 13.824-12.288 23.552-12.288H650.24c8.704 0 15.872-6.656 15.872-15.36v-107.52c0-9.216 3.584-15.872 10.752-21.504 7.68-5.632 16.896-6.656 25.6-3.072 8.192 4.096 17.408 6.144 28.672 6.144 46.08 0 84.992-38.4 84.992-83.456 0-46.08-37.888-83.456-84.992-83.456-8.192 0-17.408 3.072-26.112 5.632l-3.072 1.024c-10.24 2.56-18.432 1.536-25.088-3.584-6.656-3.072-10.752-11.264-10.752-21.504z"  horiz-adv-x="1024" />

    
    <glyph glyph-name="sharearrow" unicode="&#59165;" d="M977.6 796.8c-3.2 2.4-7.2 2.4-10.4 0.8l-937.6-480c-3.2-1.6-5.6-5.6-5.6-9.6s3.2-7.2 6.4-8.8l313.6-100c3.2-0.8 7.2 0 9.6 2.4l434.4 391.2-346.4-410.4c-2.4-2.4-3.2-5.6-1.6-8.8 0.8-3.2 3.2-5.6 6.4-6.4l348-106.4c0.8 0 1.6-0.8 2.4-0.8 1.6 0 3.2 0.8 4.8 1.6 2.4 1.6 4 3.2 4.8 6.4l174.4 718.4c0.8 4 0 8-3.2 10.4zM548 92l-96 29.6c-3.2 0.8-6.4 0-8.8-1.6-2.4-1.6-4-4.8-4-8v-181.6c0-4 3.2-8 7.2-9.6h2.4c3.2 0 6.4 1.6 8 4.8l96 152c1.6 2.4 1.6 5.6 0.8 8.8 0 2.4-2.4 4.8-5.6 5.6z"  horiz-adv-x="1024" />

    
    <glyph glyph-name="juejin" unicode="&#58891;" d="M92.22438979 362.52726783l-60.75699621-49.71026963 481.91344724-381.11206716 479.1517656 381.11206716-60.75699621 49.71026963-419.77561021-330.02095671-419.77561021 330.02095671zM281.39958255 515.80059919l-57.99531456-49.71026964 288.59573201-229.2195766 289.97657283 230.60041743-63.51867786 46.948588-226.45789497-179.50930701-230.60041745 180.89014782zM510.61915918 699.45242866l-96.65885761-75.94624528 98.03969843-77.32708609 93.89717597 75.94624528-95.27801679 77.32708609z"  horiz-adv-x="1024" />

    
    <glyph glyph-name="steam" unicode="&#62011;" d="M1008 384c0-274-222.4-496-496.8-496-227.6 0-419.2 152.6-478 360.8l190.4-78.6c12.8-64.2 69.8-112.8 137.8-112.8 78.4 0 143.8 64.8 140.4 147l169 120.4c104.2-2.6 191.6 81.8 191.6 187 0 103.2-84 187-187.4 187s-187.4-84-187.4-187v-2.4L369.2 338c-31 1.8-61.4-6.8-87-24.2L16 423.8C36.4 679.2 250.2 880 511.2 880 785.6 880 1008 658 1008 384zM327.4 127.4l-61 25.2a105.58 105.58 0 0 1 54.4-51.6c53.8-22.4 115.6 3.2 138 56.8 10.8 26 11 54.6 0.2 80.6-10.8 26-31 46.4-57 57.2-25.8 10.8-53.4 10.4-77.8 1.2l63-26c39.6-16.4 58.4-61.8 41.8-101.4-16.6-39.8-62-58.4-101.6-42z m347.6 259.8c-68.8 0-124.8 56-124.8 124.6s56 124.6 124.8 124.6 124.8-56 124.8-124.6-55.8-124.6-124.8-124.6z m0.2 31.2c51.8 0 93.8 42 93.8 93.6 0 51.8-42 93.6-93.8 93.6s-93.8-42-93.8-93.6c0.2-51.6 42.2-93.6 93.8-93.6z"  horiz-adv-x="1024" />

    


  </font>
</defs>
</svg>
